<svg width="216" height="133" viewBox="0 0 216 133" fill="none" xmlns="http://www.w3.org/2000/svg">
<g clip-path="url(#clip0_3554_16383)">
<path d="M56 65.7651C56 54.2045 65.373 44.8315 76.9336 44.8315C88.4942 44.8315 97.8672 54.2045 97.8672 65.7651V86.1003C97.8672 86.4318 97.6003 86.6987 97.2689 86.6987H86.5038C86.3451 86.6987 86.1929 86.6357 86.0807 86.5234C85.9684 86.4112 85.9054 86.259 85.9054 86.1003V65.7651C85.9054 63.9906 85.3792 62.256 84.3934 60.7806C83.4076 59.3052 82.0063 58.1553 80.367 57.4762C78.7276 56.7972 76.9237 56.6195 75.1833 56.9657C73.4429 57.3119 71.8443 58.1663 70.5896 59.4211C69.3349 60.6758 68.4804 62.2744 68.1342 64.0148C67.788 65.7551 67.9657 67.5591 68.6447 69.1984C69.3238 70.8378 70.4737 72.239 71.9491 73.2249C73.4245 74.2107 75.1592 74.7369 76.9336 74.7369H83.812C84.1435 74.7369 84.4104 75.0038 84.4104 75.3352V86.1003C84.4104 86.4318 84.1417 86.6987 83.812 86.6987H76.9336C65.373 86.6987 56 77.3257 56 65.7651ZM130.914 48.6536C131.228 48.3885 131.204 47.8895 130.85 47.6819C127.648 45.8094 124.005 44.8254 120.296 44.8315C108.735 44.8315 99.3622 54.2045 99.3622 65.7651V86.1003C99.3622 86.4318 99.6309 86.6987 99.9606 86.6987H110.726C111.057 86.6987 111.324 86.4318 111.324 86.1003V65.7651C111.324 64.2801 111.692 62.8181 112.396 61.5105C113.1 60.2029 114.117 59.0904 115.357 58.2729C116.597 57.4554 118.02 56.9584 119.499 56.8265C120.978 56.6946 122.467 56.932 123.832 57.5173C123.91 57.5516 123.995 57.5702 124.08 57.5719C124.166 57.5735 124.251 57.5583 124.33 57.527C124.41 57.4957 124.482 57.449 124.544 57.3896C124.605 57.3301 124.654 57.2591 124.688 57.1806C126.058 53.8843 128.193 50.9614 130.916 48.6536H130.914ZM145.416 44.8315C150.838 44.8241 156.05 46.9276 159.948 50.6964C160.183 50.9232 160.181 51.3 159.948 51.532L152.342 59.1396C152.225 59.2525 152.069 59.316 151.907 59.317C151.744 59.318 151.588 59.2563 151.469 59.1448C150.21 57.9932 148.648 57.2246 146.967 56.9294C145.286 56.6341 143.556 56.8244 141.979 57.478C140.403 58.1315 139.045 59.2212 138.066 60.6191C137.087 62.017 136.527 63.6652 136.452 65.3701C136.377 67.0751 136.789 68.7662 137.641 70.245C138.493 71.7237 139.75 72.9288 141.262 73.7187C142.775 74.5087 144.482 74.8508 146.182 74.7048C147.883 74.5588 149.506 73.9309 150.862 72.8947C150.982 72.8002 151.132 72.7524 151.284 72.7601C151.436 72.7678 151.58 72.8305 151.689 72.9366L159.327 80.5739C159.384 80.6297 159.428 80.6966 159.459 80.7704C159.489 80.8443 159.503 80.9235 159.502 81.0033C159.5 81.083 159.482 81.1616 159.449 81.2342C159.416 81.3067 159.368 81.3717 159.309 81.4252C155.483 84.8292 150.538 86.7063 145.416 86.6987C133.856 86.6987 124.483 77.3257 124.483 65.7651C124.483 54.2045 133.856 44.8315 145.416 44.8315Z" fill="#206D69"/>
</g>
<defs>
<clipPath id="clip0_3554_16383">
<rect width="104.668" height="41.8672" fill="white" transform="translate(56 44.8315)"/>
</clipPath>
</defs>
</svg>
