<svg width="84" height="28" viewBox="0 0 84 28" fill="none" xmlns="http://www.w3.org/2000/svg">
<path fill-rule="evenodd" clip-rule="evenodd" d="M13.9454 -1.10898e-07C10.2343 -1.10898e-07 6.70812 1.46656 4.08454 4.10044C1.46082 6.73447 0 10.2744 0 14C0 17.7253 1.46082 21.2658 4.08454 23.8996C6.70783 26.5336 10.2346 28 13.9454 28C17.6564 28 21.1825 26.5336 23.8062 23.8996C26.4299 21.2657 27.8906 17.7256 27.8906 14C27.8906 10.2743 26.4302 6.73447 23.8062 4.10044C21.1825 1.46626 17.6565 -1.10898e-07 13.9454 -1.10898e-07V-1.10898e-07ZM13.9454 11.1913C15.4905 11.1913 16.7432 12.4487 16.7432 14C16.7432 15.5514 15.4905 16.8089 13.9454 16.8089C12.4 16.8089 11.1475 15.5514 11.1475 14C11.1475 12.4487 12.4 11.1913 13.9454 11.1913V11.1913ZM11.6914 5.5374C10.9456 5.73713 10.2305 6.03533 9.56334 6.42527C9.63881 6.06523 9.67982 5.67383 9.68333 5.24945C9.7023 2.93722 11.6613 1.0816 13.9451 1.0819C15.1556 1.0819 16.2957 1.61221 17.0892 2.52515C17.4147 2.34022 17.7567 2.18591 18.1105 2.06443C17.9664 1.87672 17.8104 1.69911 17.6437 1.53294C18.4745 1.78073 19.2778 2.11206 20.042 2.52164C18.679 2.51094 17.329 3.01635 16.3278 4.02145C14.52 5.69346 12.6525 5.23274 10.9858 3.69805C10.8007 4.04476 10.6781 4.42092 10.6236 4.81101C10.9775 5.09207 11.3338 5.33561 11.6914 5.5374V5.5374ZM6.39225 9.61615C6.00501 10.2869 5.70884 11.0053 5.5112 11.7547C5.31138 11.4463 5.0647 11.1404 4.76839 10.8378C3.15343 9.18928 3.23167 6.48668 4.84633 4.86567C5.70242 4.00651 6.88225 3.57232 8.08632 3.65438C8.18572 3.29243 8.31913 2.94073 8.48393 2.60355C8.24995 2.57307 8.01465 2.55827 7.77965 2.55914C8.53998 2.14547 9.33943 1.81004 10.1665 1.55756C9.19668 2.51577 8.60187 3.82758 8.60187 5.25267C8.50072 7.72229 6.85905 8.71831 4.5963 8.81634C4.70986 9.1928 4.88823 9.54625 5.1244 9.86058C5.57309 9.80797 5.99698 9.72723 6.39225 9.61615V9.61615ZM5.51573 16.2628C5.71483 17.0114 6.0123 17.7297 6.40042 18.3992C6.04179 18.3232 5.65206 18.2823 5.22891 18.2788C2.92587 18.2597 1.07752 16.293 1.07766 14.0003C1.07766 12.785 1.60591 11.6404 2.51542 10.8439C2.33106 10.5171 2.17736 10.1737 2.05636 9.81852C1.86967 9.96315 1.69291 10.1194 1.52767 10.2866C1.7745 9.45276 2.10409 8.64665 2.51191 7.87967C2.50126 9.24805 3.00499 10.6029 4.00587 11.6082C5.67133 13.4232 5.21227 15.2979 3.68372 16.9712C4.02893 17.157 4.40377 17.2801 4.79218 17.3348C5.07229 16.9796 5.31474 16.6219 5.51573 16.2628V16.2628ZM9.57896 21.5837C10.2466 21.9723 10.9624 22.2693 11.7084 22.4676C11.4013 22.6685 11.0969 22.9156 10.7956 23.213C9.15347 24.8345 6.46144 24.7558 4.84663 23.1348C3.99083 22.2753 3.55848 21.0909 3.64023 19.8821C3.27969 19.7821 2.92938 19.6483 2.59351 19.4829C2.56315 19.7178 2.54841 19.9543 2.54914 20.1899C2.13737 19.4266 1.80311 18.6239 1.55146 17.7937C2.50564 18.7673 3.81305 19.3645 5.23212 19.3645C7.69222 19.4659 8.68419 21.1143 8.78184 23.3856C9.15698 23.2718 9.5089 23.0927 9.82199 22.8558C9.76974 22.4055 9.68975 21.9801 9.57896 21.5837V21.5837ZM16.1996 22.463C16.9451 22.2635 17.66 21.9651 18.3269 21.5756C18.2516 21.9354 18.2109 22.3265 18.2074 22.7507C18.1883 25.0628 16.2294 26.9184 13.9457 26.9181C12.7352 26.9181 11.595 26.3879 10.8014 25.4748C10.4761 25.6599 10.1339 25.8142 9.78024 25.9357C9.92417 26.1231 10.0801 26.3003 10.2466 26.4665C9.41606 26.2187 8.61325 25.8876 7.84913 25.4784C9.21229 25.4892 10.5616 24.9834 11.5628 23.9785C13.3707 22.3065 15.2382 22.7674 16.9048 24.302C17.09 23.9554 17.2126 23.5791 17.2671 23.1891C16.9133 22.9079 16.5571 22.6648 16.1996 22.463V22.463ZM21.5012 18.383C21.8875 17.713 22.1828 16.995 22.3801 16.2463C22.5799 16.5543 22.8262 16.86 23.1223 17.1622C24.7373 18.8107 24.6591 21.5135 23.0442 23.1345C22.1883 23.9936 21.0083 24.4278 19.8044 24.3456C19.7049 24.7076 19.5716 25.0593 19.4068 25.3965C19.6406 25.4269 19.8761 25.4417 20.1109 25.441C19.3507 25.8547 18.5513 26.19 17.7242 26.4426C18.694 25.4844 19.2888 24.1724 19.2888 22.7475C19.3899 20.2777 21.0317 19.2817 23.2943 19.1837C23.1809 18.8072 23.0023 18.4539 22.7663 18.1396C22.3186 18.1917 21.8955 18.2723 21.5012 18.383V18.383ZM22.3751 11.7369C22.1766 10.9885 21.8797 10.2707 21.4918 9.60121C21.8502 9.67653 22.2394 9.7177 22.6617 9.72137C24.9648 9.74042 26.8132 11.707 26.8129 13.9997C26.8129 15.215 26.2847 16.3596 25.3753 17.1563C25.5595 17.4829 25.7134 17.8263 25.8342 18.1816C26.021 18.037 26.1978 17.8808 26.363 17.7134C26.1162 18.5472 25.7865 19.3533 25.3788 20.1205C25.3895 18.7521 24.8857 17.3971 23.8847 16.3919C22.2192 14.5769 22.6783 12.7021 24.207 11.0288C23.8616 10.843 23.4869 10.7199 23.0985 10.6652C22.8187 11.0203 22.5761 11.3778 22.3751 11.7369V11.7369ZM18.3115 6.41502C17.6437 6.02728 16.9282 5.73068 16.1824 5.53242C16.4894 5.33151 16.7939 5.0843 17.0951 4.78697C18.7372 3.16567 21.4293 3.24422 23.0439 4.86537C23.8997 5.72482 24.3322 6.90929 24.2503 8.11794C24.611 8.21788 24.9613 8.35167 25.2972 8.51711C25.3276 8.28221 25.3423 8.04585 25.3414 7.81007C25.7532 8.57338 26.0875 9.37627 26.3391 10.2063C25.3849 9.23266 24.0777 8.63566 22.6585 8.63566C20.1985 8.53411 19.2064 6.88584 19.1087 4.61435C18.7337 4.72835 18.3817 4.90728 18.0687 5.14438C18.1207 5.59411 18.2011 6.01893 18.3115 6.41502V6.41502ZM19.4141 8.50979C20.8689 9.97078 21.6787 11.9341 21.6787 14C21.6787 16.0658 20.8696 18.0305 19.4151 19.4912C17.9603 20.9521 16.003 21.7639 13.9454 21.7639C11.888 21.7639 9.9303 20.9518 8.47561 19.4912C7.02078 18.0307 6.21184 16.0655 6.21184 14C6.21184 11.9344 7.0215 9.97048 8.47663 8.50979C9.93176 7.04982 11.8877 6.23624 13.9454 6.23624C16.0032 6.23624 17.959 7.04938 19.4141 8.50979" fill="currentColor"></path>
<path d="M39.1019 5.6002H38.9226L31.5 21.6111H33.4353L35.2881 17.5627H39.1019H42.9157L44.7687 21.6111H46.7038L39.2814 5.6002H39.1019ZM39.1019 15.8016H36.0941L39.1019 9.22965L42.1098 15.8016H39.1019ZM54.904 19.4077C54.2617 19.8083 53.6413 20.0086 53.0433 20.0086C52.0463 20.0086 51.4926 19.4746 51.4926 18.05V11.6588H55.1919V10.2306L51.4926 10.2529V7.15916H49.7868V10.2529H48.1031V11.6588H49.7868V18.3617C49.7868 20.6763 51.0494 21.7002 52.7551 21.7002C53.6856 21.678 54.5719 21.3663 55.3913 20.8099L54.904 19.4077ZM62.8669 9.83757C59.4111 9.83757 56.952 12.2411 56.952 15.7355C56.952 19.2517 59.4111 21.678 62.8669 21.678C66.3227 21.678 68.7815 19.2517 68.7815 15.7355C68.7815 12.2411 66.3227 9.83757 62.8669 9.83757ZM62.8669 11.4176C65.3036 11.4176 67.0538 13.1982 67.0538 15.7576C67.0538 18.3393 65.3036 20.1198 62.8669 20.1198C60.4301 20.1198 58.68 18.3393 58.68 15.7576C58.68 13.1982 60.4301 11.4176 62.8669 11.4176ZM72.3581 6.03145V21.6111H78.4178C81.9179 21.6111 84.0003 20.0309 84.0003 17.3824C84.0003 15.2459 82.6931 13.7767 80.4558 13.4431C82.2724 13.0646 83.3135 11.7514 83.3135 9.92654C83.3135 7.47836 81.4303 6.03145 78.307 6.03145H72.3581ZM74.1304 7.7454H78.2183C80.3006 7.7454 81.519 8.63559 81.519 10.2157C81.519 11.8405 80.3003 12.7531 78.2183 12.7531H74.1304V7.7454ZM74.1304 14.4446H78.2183C80.7438 14.4446 82.2058 15.446 82.2058 17.1376C82.2058 18.9181 80.7435 19.9197 78.2183 19.9197H74.1304V14.4446Z" fill="currentColor"></path>
</svg>