<svg version="1.1" xmlns="http://www.w3.org/2000/svg" x="0px" y="0px" viewBox="0 0 112.5 28" width="112.5" height="28" class="sc-fde3cc39-0 kHkMfS   "><path class="mark" d="M25.2,14c0,3.7-1.8,7.2-4.9,9.2c1.3-2.4,2-5.7,2-9.2h-2.8c0,4.5-1.7,9.5-4.2,10.8V0L14,0C6.3,0,0,6.3,0,14  s6.3,14,14,14s14-6.3,14-14H25.2z M8.4,14c0-4.5,1.7-9.5,4.2-10.8v21.7C10.1,23.5,8.4,18.5,8.4,14z M2.8,14c0-3.7,1.8-7.2,4.9-9.2  c-1.3,2.4-2,5.7-2,9.2s0.8,6.8,2,9.2C4.6,21.2,2.8,17.7,2.8,14z"></path><path class="mark" d="M17.6,0v2.8h6C16.7,8.1,12.6,16.3,12.6,25v0.4h2.8V25c0-7.8,3.6-15.2,9.8-19.9v5.4H28V0H17.6z"></path><polygon class="word" points="58,22.5 72.6,22.5 72.6,19.5 61.2,19.5 61.2,15.3 71.3,15.3 71.3,12.3 61.2,12.3 61.2,8.5 72.6,8.5   72.6,5.5 58,5.5 "></polygon><polygon class="word" points="89.8,17.4 78.7,5.5 75.7,5.5 75.7,22.5 78.9,22.5 78.9,10.6 90,22.5 93,22.5 93,5.5 89.8,5.5 "></polygon><path class="word" d="M111.9,10.1c-0.4-1.2-1.1-2.2-2.1-3c-1-0.8-2.1-1.3-3.4-1.5c-0.4-0.1-0.8-0.1-1.2-0.1l-0.8,0h-8.2v17h8.2h0.8  c0.4,0,0.8,0,1.2-0.1c1.3-0.1,2.4-0.6,3.4-1.5c0.9-0.8,1.6-1.8,2.1-3c0.5-1.3,0.7-2.6,0.7-3.9C112.6,12.7,112.3,11.3,111.9,10.1z  M109.3,14c0,0.8-0.1,1.7-0.4,2.5c-0.2,0.7-0.6,1.4-1,1.9c-0.5,0.5-1.1,0.8-1.8,1c-0.3,0-0.6,0.1-0.9,0.1c-0.3,0-0.6,0-0.9,0h-5v-11  h5c0.2,0,0.5,0,0.9,0c0.3,0,0.6,0,0.9,0.1c0.7,0.1,1.3,0.4,1.8,0.9c0.5,0.5,0.9,1.2,1.1,1.9C109.2,12.3,109.3,13.1,109.3,14  L109.3,14z"></path><path class="word" d="M54.3,14.5L54.3,14.5c-0.3-0.4-0.8-0.7-1.2-1c0.2-0.2,0.4-0.4,0.6-0.6c0.6-0.7,0.8-1.6,0.8-2.6  c0-0.8-0.2-1.6-0.7-2.3c-0.5-0.7-1.1-1.3-1.9-1.7C51,5.7,50,5.5,49,5.5H38.9v17h10.7c1,0,2.1-0.2,3-0.6c0.8-0.4,1.5-1,2-1.8  c0.5-0.8,0.7-1.7,0.7-2.7C55.3,16.3,55,15.3,54.3,14.5z M42,15.1h7.4c0.5,0,1,0.1,1.4,0.3c0.4,0.2,0.7,0.5,0.9,0.8  c0.2,0.4,0.3,0.8,0.3,1.2c0,0.4-0.1,0.8-0.3,1.1c-0.3,0.3-0.6,0.6-1,0.8c-0.5,0.2-1,0.3-1.5,0.3H42L42,15.1z M50.9,11.2L50.9,11.2  c-0.2,0.3-0.5,0.5-0.8,0.7c-0.4,0.2-0.8,0.3-1.2,0.3H42V8.4H49c0.6,0,1.2,0.2,1.7,0.5c0.4,0.3,0.6,0.8,0.6,1.3  C51.2,10.6,51.1,10.9,50.9,11.2L50.9,11.2z"></path></svg>