<svg width="32" height="32" viewBox="0 0 32 32" fill="none" xmlns="http://www.w3.org/2000/svg">
<path d="M16 0C24.8366 0 32 7.16344 32 16C32 16.3519 31.9886 16.7012 31.9663 17.0475L27.1763 16.7379C27.192 16.4946 27.2 16.2486 27.2 16C27.2 9.81441 22.1856 4.8 16 4.8C9.81441 4.8 4.8 9.81441 4.8 16C4.8 16.2486 4.80802 16.4946 4.82375 16.7379L0.0337382 17.0475C0.0113617 16.7012 0 16.3519 0 16C0 7.16344 7.16344 0 16 0Z" fill="#1C1917"/>
<path d="M0.304545 19.1226L5.01329 18.1911C5.10876 18.6737 5.23524 19.1447 5.39053 19.6023L0.845162 21.1449C0.622518 20.4889 0.441275 19.8137 0.304545 19.1226Z" fill="#1C1917"/>
<path d="M1.64682 23.0782L5.9502 20.9519C6.16715 21.391 6.41234 21.8143 6.6836 22.2195L2.69495 24.8899C2.30775 24.3115 1.95726 23.7065 1.64682 23.0782Z" fill="#1C1917"/>
<path d="M3.97035 26.5496L7.57794 23.3833C7.90124 23.7517 8.2483 24.0988 8.61666 24.4221L5.45039 28.0297C4.92551 27.569 4.43103 27.0745 3.97035 26.5496Z" fill="#1C1917"/>
<path d="M7.11015 29.305L9.78048 25.3164C10.1857 25.5877 10.609 25.8329 11.0481 26.0498L8.92184 30.3532C8.29352 30.0427 7.68851 29.6922 7.11015 29.305Z" fill="#1C1917"/>
<path d="M10.8551 31.1548L12.3977 26.6095C12.8553 26.7648 13.3263 26.8912 13.8089 26.9867L12.8774 31.6955C12.1863 31.5587 11.5111 31.3775 10.8551 31.1548Z" fill="#1C1917"/>
<path d="M14.9525 31.9663L15.2621 27.1763C15.5054 27.192 15.7514 27.2 16 27.2C16.2486 27.2 16.4946 27.192 16.7379 27.1763L17.0475 31.9663C16.7012 31.9886 16.3519 32 16 32C15.6481 32 15.2988 31.9886 14.9525 31.9663Z" fill="#1C1917"/>
<path d="M19.1226 31.6955L18.1911 26.9867C18.6737 26.8912 19.1447 26.7648 19.6023 26.6095L21.1449 31.1548C20.4889 31.3775 19.8137 31.5587 19.1226 31.6955Z" fill="#1C1917"/>
<path d="M23.0782 30.3532L20.9519 26.0498C21.391 25.8329 21.8143 25.5877 22.2195 25.3164L24.8899 29.305C24.3115 29.6922 23.7065 30.0427 23.0782 30.3532Z" fill="#1C1917"/>
<path d="M26.5496 28.0296L23.3833 24.4221C23.7517 24.0988 24.0988 23.7517 24.4221 23.3833L28.0297 26.5496C27.569 27.0745 27.0745 27.569 26.5496 28.0296Z" fill="#1C1917"/>
<path d="M29.305 24.8899L25.3164 22.2195C25.5877 21.8143 25.8329 21.391 26.0498 20.9519L30.3532 23.0782C30.0427 23.7065 29.6922 24.3115 29.305 24.8899Z" fill="#1C1917"/>
<path d="M31.1548 21.1449L26.6095 19.6023C26.7648 19.1447 26.8912 18.6737 26.9867 18.1911L31.6955 19.1226C31.5587 19.8137 31.3775 20.4889 31.1548 21.1449Z" fill="#1C1917"/>
</svg>
