<svg class="svg-icon" width="100%" height="100%" viewBox="0 0 36 41" fill="none" xmlns="http://www.w3.org/2000/svg">
<path d="M11 29L27 20L33.1399 23.9C35.5009 25.25 36.1759 26.683 33.8989 28.032L14.4189 39.501C12.1429 40.85 11.0889 39.838 11.0469 37.097L11 29Z" fill="#5EC1FB"></path>
<path d="M11 11V29L3.752 33.2611C1.392 34.6101 0 34.2301 0 31.5301V8.6381C0 5.9401 1.391 5.5601 3.752 6.9101L11 11Z" fill="#211EAD"></path>
<path d="M27 20L11 11L10.9609 3.07207C10.9609 0.374068 11.9729 -0.764932 14.2919 0.542068L33.8989 11.7581C36.2179 13.0651 35.8389 14.4981 33.5189 15.8901L27 20Z" fill="#5EC1FB"></path>
<path d="M27 20L11 11V29L27 20Z" fill="transparent"></path>
</svg>