<svg width="1146" height="294" viewBox="0 0 1146 294" fill="none" xmlns="http://www.w3.org/2000/svg">
<path d="M927.303 100.883C903.124 100.883 885.307 115.508 881.958 118.423L881.715 118.617L873.024 126.974L906.378 162.054L914.292 154.425C914.875 153.939 920.166 149.518 926.964 149.518C927.061 149.518 927.109 149.518 927.206 149.518H927.303C937.45 149.713 945.704 158.119 945.704 168.272C945.704 180.176 935.849 186.492 926.721 187.27C926.381 187.318 926.041 187.318 925.701 187.318C917.01 187.318 906.329 178.671 897.784 170.313L865.401 134.213C859.478 127.606 853.798 121.824 847.826 117.354C833.892 105.936 820.444 100.835 804.276 100.835C767.135 100.835 736.888 131.105 736.888 168.272C736.888 205.442 767.135 235.71 804.276 235.71C817.967 235.71 829.619 230.901 836.999 226.819C843.942 222.981 848.409 219.192 849.622 218.122L849.865 217.88L856.37 211.563L823.696 175.852L817.287 182.12C816.656 182.703 811.364 187.027 804.664 187.027C794.324 187.027 785.924 178.622 785.924 168.272C785.924 157.924 794.324 149.518 804.664 149.518C813.987 149.518 823.405 158.992 831.513 168.321L831.464 168.37L863.847 204.373C881.375 221.377 902.59 236.05 928.08 236.05C934.489 236.05 940.946 235.079 947.306 233.183C960.9 229.103 973.135 220.308 981.729 208.308C990.128 196.647 994.74 182.411 994.74 168.321C994.692 131.153 964.444 100.883 927.303 100.883Z" fill="black"/>
<path d="M927.303 100.883C903.124 100.883 885.307 115.508 881.958 118.423L881.715 118.617L873.024 126.974L906.378 162.054L914.292 154.425C914.875 153.939 920.166 149.518 926.964 149.518C927.061 149.518 927.109 149.518 927.206 149.518H927.303C937.45 149.713 945.704 158.119 945.704 168.272C945.704 180.176 935.849 186.492 926.721 187.27C926.381 187.318 926.041 187.318 925.701 187.318C917.01 187.318 906.329 178.671 897.784 170.313L865.401 134.213C859.478 127.606 853.798 121.824 847.826 117.354C833.892 105.936 820.444 100.835 804.276 100.835C767.135 100.835 736.888 131.105 736.888 168.272C736.888 205.442 767.135 235.71 804.276 235.71C817.967 235.71 829.619 230.901 836.999 226.819C843.942 222.981 848.409 219.192 849.622 218.122L849.865 217.88L856.37 211.563L823.696 175.852L817.287 182.12C816.656 182.703 811.364 187.027 804.664 187.027C794.324 187.027 785.924 178.622 785.924 168.272C785.924 157.924 794.324 149.518 804.664 149.518C813.987 149.518 823.405 158.992 831.513 168.321L831.464 168.37L863.847 204.373C881.375 221.377 902.59 236.05 928.08 236.05C934.489 236.05 940.946 235.079 947.306 233.183C960.9 229.103 973.135 220.308 981.729 208.308C990.128 196.647 994.74 182.411 994.74 168.321C994.692 131.153 964.444 100.883 927.303 100.883Z" fill="black"/>
<path d="M12.5951 235.686V58.9768H60.5336V197.031H131.924V235.686H12.5951ZM203.655 238.102C189.285 238.102 176.984 235.255 166.753 229.559C156.521 223.808 148.675 215.812 143.215 205.573C137.754 195.277 135.024 183.341 135.024 169.766C135.024 156.189 137.754 144.282 143.215 134.043C148.675 123.747 156.521 115.751 166.753 110.057C176.984 104.305 189.285 101.428 203.655 101.428C218.025 101.428 230.327 104.305 240.558 110.057C250.79 115.751 258.635 123.747 264.096 134.043C269.556 144.282 272.287 156.189 272.287 169.766C272.287 183.341 269.556 195.277 264.096 205.573C258.635 215.812 250.79 223.808 240.558 229.559C230.327 235.255 218.025 238.102 203.655 238.102ZM204 202.898C208.023 202.898 211.501 201.547 214.433 198.842C217.364 196.139 219.635 192.286 221.244 187.28C222.853 182.276 223.658 176.322 223.658 169.421C223.658 162.459 222.853 156.506 221.244 151.559C219.635 146.555 217.364 142.701 214.433 139.997C211.501 137.293 208.023 135.942 204 135.942C199.746 135.942 196.096 137.293 193.05 139.997C190.004 142.701 187.676 146.555 186.066 151.559C184.456 156.506 183.653 162.459 183.653 169.421C183.653 176.322 184.456 182.276 186.066 187.28C187.676 192.286 190.004 196.139 193.05 198.842C196.096 201.547 199.746 202.898 204 202.898ZM343.263 288.147C329.985 288.147 318.604 286.248 309.12 282.451C299.694 278.713 292.365 273.535 287.134 266.92C281.961 260.364 279.058 252.828 278.426 244.314H324.295C324.755 247.133 325.905 249.406 327.744 251.131C329.583 252.857 331.939 254.094 334.814 254.841C337.745 255.646 341.021 256.048 344.643 256.048C350.793 256.048 355.88 254.553 359.904 251.562C363.985 248.571 366.026 243.163 366.026 235.341V212.907H364.645C362.921 217.394 360.277 221.219 356.713 224.383C353.15 227.489 348.867 229.876 343.867 231.544C338.866 233.155 333.377 233.961 327.399 233.961C317.971 233.961 309.293 231.774 301.36 227.403C293.485 223.031 287.163 216.1 282.392 206.608C277.678 197.117 275.322 184.721 275.322 169.421C275.322 153.429 277.793 140.429 282.737 130.419C287.737 120.411 294.175 113.077 302.05 108.417C309.982 103.758 318.317 101.428 327.054 101.428C333.606 101.428 339.354 102.579 344.298 104.88C349.241 107.123 353.38 110.143 356.713 113.939C360.048 117.678 362.577 121.791 364.301 126.278H365.336V103.154H412.929V235.341C412.929 246.558 410.026 256.078 404.221 263.9C398.473 271.781 390.368 277.792 379.906 281.934C369.445 286.075 357.23 288.147 343.263 288.147ZM344.987 200.137C349.356 200.137 353.092 198.929 356.196 196.513C359.357 194.04 361.772 190.53 363.439 185.987C365.164 181.385 366.026 175.863 366.026 169.421C366.026 162.863 365.164 157.254 363.439 152.595C361.772 147.878 359.357 144.282 356.196 141.809C353.092 139.278 349.356 138.012 344.987 138.012C340.619 138.012 336.883 139.278 333.779 141.809C330.733 144.282 328.376 147.878 326.708 152.595C325.1 157.254 324.295 162.863 324.295 169.421C324.295 175.977 325.1 181.557 326.708 186.159C328.376 190.703 330.733 194.183 333.779 196.6C336.883 198.958 340.619 200.137 344.987 200.137ZM424.996 235.686V103.154H472.589V235.686H424.996ZM448.793 89.3487C442.355 89.3487 436.837 87.2203 432.239 82.9636C427.64 78.707 425.341 73.5875 425.341 67.6051C425.341 61.6228 427.64 56.5033 432.239 52.2466C436.837 47.9899 442.355 45.8616 448.793 45.8616C455.287 45.8616 460.806 47.9899 465.346 52.2466C469.945 56.5033 472.244 61.6228 472.244 67.6051C472.244 73.5875 469.945 78.707 465.346 82.9636C460.806 87.2203 455.287 89.3487 448.793 89.3487ZM548.502 238.102C534.132 238.102 521.832 235.255 511.6 229.559C501.369 223.808 493.522 215.812 488.061 205.573C482.601 195.277 479.871 183.341 479.871 169.766C479.871 156.189 482.601 144.282 488.061 134.043C493.522 123.747 501.369 115.751 511.6 110.057C521.832 104.305 534.132 101.428 548.502 101.428C561.493 101.428 572.731 103.787 582.214 108.504C591.756 113.163 599.142 119.778 604.373 128.349C609.604 136.862 612.248 146.871 612.305 158.376H568.16C567.529 151.415 565.516 146.123 562.125 142.499C558.792 138.818 554.481 136.977 549.191 136.977C545.053 136.977 541.432 138.185 538.329 140.601C535.224 142.959 532.81 146.555 531.086 151.387C529.361 156.161 528.499 162.173 528.499 169.421C528.499 176.667 529.361 182.708 531.086 187.539C532.81 192.314 535.224 195.91 538.329 198.325C541.432 200.683 545.053 201.863 549.191 201.863C552.699 201.863 555.803 201.057 558.504 199.446C561.205 197.778 563.39 195.363 565.057 192.199C566.781 188.978 567.815 185.066 568.16 180.464H612.305C612.133 192.141 609.46 202.323 604.287 211.009C599.114 219.637 591.785 226.31 582.3 231.027C572.874 235.743 561.608 238.102 548.502 238.102ZM619.112 235.686V58.9768H667.051V197.031H738.442V235.686H619.112ZM999.978 285.385V103.154H1047.23V126.278H1048.26C1049.99 121.791 1052.51 117.678 1055.85 113.939C1059.18 110.143 1063.32 107.123 1068.27 104.88C1073.21 102.579 1078.96 101.428 1085.51 101.428C1094.25 101.428 1102.55 103.758 1110.43 108.417C1118.36 113.077 1124.8 120.411 1129.74 130.419C1134.74 140.429 1137.24 153.429 1137.24 169.421C1137.24 184.721 1134.86 197.405 1130.08 207.472C1125.37 217.538 1119.05 225.045 1111.12 229.991C1103.24 234.938 1094.59 237.411 1085.16 237.411C1078.96 237.411 1073.41 236.405 1068.52 234.392C1063.69 232.321 1059.56 229.531 1056.11 226.022C1052.72 222.456 1050.1 218.429 1048.26 213.942H1047.57V285.385H999.978ZM1046.54 169.421C1046.54 175.863 1047.37 181.442 1049.04 186.159C1050.76 190.818 1053.18 194.442 1056.28 197.031C1059.44 199.562 1063.21 200.828 1067.57 200.828C1071.94 200.828 1075.65 199.591 1078.7 197.117C1081.8 194.587 1084.16 190.991 1085.77 186.332C1087.43 181.614 1088.27 175.977 1088.27 169.421C1088.27 162.863 1087.43 157.254 1085.77 152.595C1084.16 147.878 1081.8 144.282 1078.7 141.809C1075.65 139.278 1071.94 138.012 1067.57 138.012C1063.21 138.012 1059.44 139.278 1056.28 141.809C1053.18 144.282 1050.76 147.878 1049.04 152.595C1047.37 157.254 1046.54 162.863 1046.54 169.421Z" fill="black"/>
</svg>
