<svg width="232" height="64" viewBox="0 0 232 64" fill="none" xmlns="http://www.w3.org/2000/svg">
<rect x="9.5" y="16" width="45" height="26" rx="10" stroke="#10081E" stroke-width="4"/>
<line x1="32.5" y1="14" x2="32.5" y2="3" stroke="#10081E" stroke-width="4"/>
<path d="M29.5 3L35.5 3" stroke="#10081E" stroke-width="4" stroke-linecap="round"/>
<path d="M24 31C25.3807 31 26.5 29.8807 26.5 28.5C26.5 27.1193 25.3807 26 24 26C22.6193 26 21.5 27.1193 21.5 28.5C21.5 29.8807 22.6193 31 24 31Z" fill="#10081E"/>
<path d="M40 31C41.3807 31 42.5 29.8807 42.5 28.5C42.5 27.1193 41.3807 26 40 26C38.6193 26 37.5 27.1193 37.5 28.5C37.5 29.8807 38.6193 31 40 31Z" fill="#10081E"/>
<path d="M12.5 49H21.2778M21.2778 49H42.5C43.6046 49 44.5172 49.9027 44.3869 50.9996C43.3828 59.4547 35.9576 60 32.8889 60C29.5942 60 21.2778 59.3714 21.2778 49Z" stroke="#10081E" stroke-width="4" stroke-linecap="round"/>
<path d="M103.252 43.6806C99.9656 46.9671 95.9436 48.6103 91.186 48.6103C86.4284 48.6103 82.3907 46.9671 79.073 43.6806C75.7865 40.3628 74.1432 36.3252 74.1432 31.5676C74.1432 26.81 75.7865 22.788 79.073 19.5015C82.3907 16.1837 86.4284 14.5248 91.186 14.5248C95.9436 14.5248 99.9656 16.1837 103.252 19.5015C106.57 22.788 108.229 26.81 108.229 31.5676C108.229 36.3252 106.57 40.3628 103.252 43.6806ZM82.8759 40.0185C85.1608 42.2408 87.9308 43.352 91.186 43.352C94.4725 43.352 97.2269 42.2408 99.4492 40.0185C101.703 37.765 102.83 34.948 102.83 31.5676C102.83 28.1872 101.703 25.3859 99.4492 23.1636C97.2269 20.91 94.4725 19.7832 91.186 19.7832C87.8995 19.7832 85.1295 20.91 82.8759 23.1636C80.6536 25.3859 79.5425 28.1872 79.5425 31.5676C79.5425 34.9167 80.6536 37.7337 82.8759 40.0185ZM125.642 23.9148C128.835 23.9148 131.589 25.1198 133.906 27.5299C136.19 29.9087 137.333 32.8196 137.333 36.2626C137.333 39.7368 136.19 42.6634 133.906 45.0422C131.621 47.421 128.866 48.6103 125.642 48.6103C122.105 48.6103 119.367 47.2958 117.426 44.6666V57.39H112.356V24.5251H117.426V27.9055C119.335 25.245 122.074 23.9148 125.642 23.9148ZM119.539 41.6618C120.947 43.0703 122.716 43.7745 124.844 43.7745C126.973 43.7745 128.741 43.0703 130.15 41.6618C131.558 40.222 132.262 38.4223 132.262 36.2626C132.262 34.1029 131.558 32.3188 130.15 30.9103C128.741 29.4705 126.973 28.7506 124.844 28.7506C122.716 28.7506 120.947 29.4705 119.539 30.9103C118.13 32.3188 117.426 34.1029 117.426 36.2626C117.426 38.391 118.13 40.1907 119.539 41.6618Z" fill="#10081E"/>
<path d="M152.557 24.5251V29.4079H146.735V40.6758C146.735 41.6461 146.954 42.3504 147.392 42.7886C147.831 43.1955 148.472 43.4302 149.317 43.4928C150.194 43.5241 151.274 43.5085 152.557 43.4459V48C148.676 48.4695 145.89 48.1408 144.2 47.0141C142.51 45.856 141.664 43.7432 141.664 40.6758V29.4079H137.345V24.5251H141.664V19.4545L146.735 17.9522V24.5251H152.557ZM178.4 38.4222H159.714C160.09 40.175 160.935 41.5366 162.249 42.5069C163.595 43.4772 165.254 43.9623 167.226 43.9623C169.887 43.9623 171.905 42.992 173.283 41.0514L177.461 43.4928C175.176 46.9045 171.749 48.6103 167.179 48.6103C163.392 48.6103 160.309 47.4523 157.93 45.1361C155.583 42.7886 154.409 39.8307 154.409 36.2626C154.409 32.7883 155.567 29.8617 157.883 27.483C160.168 25.1042 163.141 23.9148 166.803 23.9148C170.215 23.9148 173.032 25.1198 175.254 27.5299C177.477 29.94 178.588 32.8665 178.588 36.3095C178.588 36.9355 178.525 37.6398 178.4 38.4222ZM159.667 34.2907H173.47C173.126 32.444 172.344 31.0198 171.123 30.0182C169.933 29.0166 168.478 28.5159 166.757 28.5159C164.879 28.5159 163.314 29.0323 162.062 30.0652C160.81 31.0981 160.011 32.5066 159.667 34.2907ZM193.523 48.6103C189.986 48.6103 187.028 47.421 184.649 45.0422C182.302 42.6321 181.128 39.7055 181.128 36.2626C181.128 32.757 182.302 29.8304 184.649 27.483C187.028 25.1042 189.986 23.9148 193.523 23.9148C195.808 23.9148 197.889 24.4625 199.767 25.558C201.645 26.6535 203.053 28.1246 203.992 29.9713L199.626 32.5066C199.094 31.3798 198.28 30.5034 197.185 29.8774C196.121 29.2201 194.884 28.8915 193.476 28.8915C191.41 28.8915 189.673 29.5957 188.264 31.0042C186.887 32.444 186.199 34.1968 186.199 36.2626C186.199 38.3284 186.887 40.0811 188.264 41.5209C189.673 42.9294 191.41 43.6337 193.476 43.6337C194.853 43.6337 196.089 43.3207 197.185 42.6947C198.312 42.0374 199.157 41.1453 199.72 40.0185L204.086 42.5069C203.085 44.3849 201.629 45.8716 199.72 46.9671C197.842 48.0626 195.776 48.6103 193.523 48.6103ZM219.63 23.9148C222.353 23.9148 224.528 24.7912 226.156 26.544C227.815 28.2655 228.644 30.6129 228.644 33.5864V48H223.573V34.1029C223.573 32.3501 223.104 31.0042 222.165 30.0652C221.226 29.1262 219.943 28.6567 218.315 28.6567C216.468 28.6567 215.013 29.2357 213.949 30.3938C212.885 31.5206 212.352 33.1952 212.352 35.4175V48H207.282V15.1352H212.352V27.5299C213.917 25.1198 216.343 23.9148 219.63 23.9148Z" fill="#10081E"/>
</svg>
