<svg width="1024" height="192" viewBox="0 0 1024 192" fill="none" xmlns="http://www.w3.org/2000/svg">
<path d="M0.118202 151.486C22.4234 151.486 40.5055 117.655 40.5055 75.9228C40.5055 34.1903 22.4234 0.359406 0.118195 0.359406L0.118168 75.9228L0.118202 151.486Z" fill="#F0BC06"/>
<path d="M0.118496 151.486C19.7474 162.08 51.7279 140.897 71.5488 104.171C91.3698 67.4463 91.5254 29.0866 71.8965 18.4927L36.0075 84.9894L0.118496 151.486Z" fill="#FF4D01"/>
<path d="M0.118347 151.487C10.7412 171.1 49.1006 170.888 85.7965 151.013C122.492 131.138 143.629 99.126 133.006 79.5127L66.5621 115.5L0.118347 151.487Z" fill="#DF26FE"/>
<path d="M0.118256 151.486C0.118256 173.792 33.9492 191.874 75.6817 191.874C117.414 191.874 151.245 173.792 151.245 151.486H75.6817H0.118256Z" fill="#3D54FF"/>
<path d="M310.512 142.784C314.077 142.784 315.742 144.686 315.742 148.252C315.742 150.391 315.028 153.957 313.602 158.711C312.889 161.089 311.938 164.654 310.987 169.171C310.036 173.688 309.085 177.254 308.372 179.631C307.184 184.147 303.38 188.902 296.962 188.902C294.822 188.902 290.068 188.664 282.223 187.951C274.378 187.238 266.296 187 257.738 187H205.916C201.399 187 199.259 185.811 199.259 183.197C199.259 182.008 200.686 180.582 203.301 178.918C206.391 177.016 208.53 174.876 210.194 172.737C212.334 169.647 213.285 161.564 213.285 148.727V52.9267C213.285 43.4179 212.809 36.9995 212.096 33.9092C211.383 30.8188 209.957 28.4416 207.58 26.7776C204.965 24.8759 199.497 23.4496 200.448 20.8346C200.686 18.4575 202.587 17.2689 206.391 17.2689H238.483C242.524 17.2689 244.664 18.4575 244.664 20.8346C245.615 23.4496 240.147 24.8759 237.532 26.7776C234.917 28.4416 233.253 30.8188 232.54 33.9092C231.827 36.9995 231.589 43.4179 231.589 52.9267V157.047C231.589 167.269 232.778 172.975 234.917 174.639C237.532 176.54 243 177.491 250.844 177.491C255.361 177.491 260.353 177.254 266.058 176.54C275.805 175.352 282.699 172.975 286.978 169.409C291.257 165.843 296.486 159.187 302.667 149.203C305.52 144.924 308.135 142.784 310.512 142.784ZM416.687 131.374C416.687 119.012 414.547 107.602 410.03 97.142C405.514 86.445 399.333 78.838 391.013 74.3213C385.545 71.231 380.078 69.8047 374.848 69.8047C368.43 69.8047 362.249 71.4687 356.544 75.0345C343.945 83.3547 337.526 97.38 337.526 117.111C337.526 133.989 341.33 148.727 349.174 161.089C357.019 173.45 367.003 179.631 379.602 179.631C391.251 179.631 400.522 174.639 407.416 164.892C413.596 156.097 416.687 144.924 416.687 131.374ZM377.225 60.2959C395.53 60.2959 410.03 66.2389 420.252 78.3626C430.474 90.486 435.704 105.7 435.704 124.242C435.704 142.547 430.237 157.998 419.064 170.597C408.129 183.197 394.103 189.615 377.225 189.615C359.396 189.615 344.895 183.91 334.198 172.261C323.501 160.613 318.271 145.162 318.271 125.669C318.271 107.364 323.739 91.913 334.911 79.3134C346.084 66.7143 360.109 60.2959 377.225 60.2959ZM512.688 60.2959C522.196 60.2959 526.238 66.7143 526.238 74.0836C526.238 80.502 524.098 83.5924 519.582 83.5924C515.778 83.5924 509.835 78.6003 504.843 78.6003C498.662 78.6003 493.433 82.1661 488.916 89.298C485.826 94.765 483.686 101.421 482.497 109.266C481.547 117.111 481.071 129.948 481.071 148.014C481.071 160.613 482.26 169.171 484.637 173.212C485.588 174.876 487.965 176.54 491.531 178.68C493.908 179.868 495.097 181.295 495.097 183.197C495.097 185.811 493.195 187 489.629 187H454.447C450.881 187 448.979 185.811 448.979 183.197C448.979 181.532 450.168 179.868 452.545 178.68C456.111 177.016 458.726 174.876 459.914 172.261C462.054 168.22 463.242 160.138 463.242 148.014C463.242 133.276 463.005 100.708 463.005 100.946C463.005 89.773 461.816 83.1169 459.676 80.7398C458.488 79.3134 455.873 77.8871 452.307 76.6985C448.741 75.5099 447.077 74.0836 447.077 72.1819C447.077 69.3293 448.266 68.1407 453.02 66.9521C458.25 65.7635 463.48 64.0994 468.71 61.96C470.849 61.0091 472.513 60.5337 474.177 60.5337C477.268 60.5337 478.932 62.4354 478.932 66.2389V85.4941C478.932 85.9696 479.169 86.207 479.407 86.207C479.645 86.207 479.883 85.9696 480.12 85.2564C482.973 79.5512 487.49 74.0836 493.433 68.6161C499.613 63.1486 506.032 60.2959 512.688 60.2959ZM566.329 23.925C566.329 26.5399 564.427 29.6302 560.623 33.4337C557.058 36.9995 553.967 38.9013 551.352 38.9013C548.975 38.9013 545.885 36.9995 542.081 33.196C538.515 29.3925 536.614 26.3022 536.614 23.925C536.614 21.7855 538.515 18.6952 542.081 14.8917C545.885 11.0882 548.975 9.1864 551.352 9.1864C553.967 9.1864 557.058 11.0882 560.623 14.8917C564.427 18.4575 566.329 21.5478 566.329 23.925ZM571.558 178.918C573.936 180.344 575.124 181.77 575.124 182.959C575.124 185.574 573.222 187 569.657 187H534.237C530.671 187 528.769 185.574 528.769 182.959C528.769 181.532 529.958 180.106 532.335 178.918C535.901 177.016 538.04 175.114 539.229 173.212C541.606 169.647 542.794 161.326 542.794 147.776V93.577C542.794 86.683 542.081 82.4038 540.417 80.502C538.991 78.838 536.614 77.4117 533.048 76.6985C529.482 75.7477 527.58 74.3213 527.58 72.4196C527.58 69.8047 528.531 68.6161 533.999 67.4275C540.893 65.7635 547.073 63.8617 552.779 61.4845C554.68 60.7714 556.107 60.2959 556.82 60.2959C559.672 60.2959 561.099 62.1977 561.099 66.0012V147.776C561.099 161.089 562.287 169.647 564.665 173.212C565.853 175.352 568.23 177.254 571.558 178.918ZM705.132 178.68C708.46 179.868 710.124 181.295 710.124 182.959C710.124 185.574 708.222 187 704.657 187H690.156C685.401 187 681.598 185.574 678.508 182.721C674.942 179.631 667.335 169.884 655.687 153.957C647.842 143.022 642.374 135.89 639.284 132.562C636.194 128.997 633.817 127.333 632.152 127.333C630.964 127.333 629.062 128.521 626.447 130.661L619.553 136.604C618.84 137.317 618.603 138.268 618.603 139.694V144.211C618.603 159.425 619.791 168.933 622.406 172.975C623.595 175.114 625.972 177.016 629.3 178.68C631.915 180.106 633.103 181.532 633.103 183.197C633.103 185.811 631.202 187 627.16 187H591.503C587.461 187 585.56 185.811 585.56 183.197C585.56 181.532 586.748 179.868 589.125 178.68C593.167 176.303 595.544 174.401 596.495 172.975C598.872 169.409 600.06 160.613 600.06 147.063V42.467C600.06 36.0486 599.11 31.7697 597.208 29.868C596.019 28.6794 593.642 27.253 589.601 25.8267C586.273 24.6381 584.609 23.2118 584.609 21.5478C584.609 18.9329 586.748 17.2689 591.027 16.318C598.396 14.654 604.815 12.7522 610.045 10.6127C611.471 9.8996 612.897 9.6619 614.086 9.6619C617.176 9.6619 618.603 11.3259 618.603 14.8917V122.816C618.603 123.529 618.84 123.767 619.316 123.767C619.553 123.767 620.029 123.529 620.742 122.816L649.031 97.855C655.449 91.913 656.638 90.724 660.203 86.683C664.007 82.6415 664.958 80.2643 664.958 78.1248C664.958 75.7477 663.531 73.6082 660.916 71.9442C658.302 70.2801 656.875 68.6161 656.875 66.9521C656.875 64.3372 659.252 62.9109 663.769 62.9109H701.091C705.132 62.9109 707.034 64.3372 707.034 66.9521C707.034 70.7556 701.804 71.4687 697.763 73.1328C693.959 74.7968 689.918 77.4117 686.352 79.5512C682.787 81.4529 677.081 86.207 673.991 88.822C672.327 90.011 669.95 91.913 666.859 94.765L659.728 100.946C658.302 102.372 655.687 104.987 651.645 108.553C647.604 112.119 644.752 114.496 643.088 116.16C642.374 116.873 642.137 117.348 642.137 117.824C642.137 118.537 642.612 119.012 643.325 119.012C644.038 119.012 645.702 117.824 646.891 117.824C652.359 117.824 658.064 124.955 671.376 143.973C680.172 156.572 687.065 165.368 691.582 169.884C696.337 174.401 700.853 177.491 705.132 178.68ZM730.405 108.791C730.405 110.217 731.118 110.93 732.544 110.93H775.096C790.547 110.93 796.966 107.364 796.966 95.716C796.966 89.298 794.351 83.3547 788.883 77.8871C783.654 72.4196 776.522 69.8047 767.726 69.8047C759.644 69.8047 752.512 72.4196 746.569 77.6494C734.446 88.109 730.405 100.47 730.405 108.791ZM814.319 161.326C814.319 166.556 808.852 172.975 797.679 180.344C788.408 186.525 777.711 189.615 765.825 189.615C749.66 189.615 736.11 183.91 725.412 172.737C714.715 161.326 709.485 146.588 709.485 128.283C709.485 109.979 715.191 94.29 726.363 80.7398C737.536 67.1898 752.037 60.2959 769.628 60.2959C783.178 60.2959 794.589 64.5749 803.622 73.3705C812.418 82.1661 816.934 92.15 816.934 103.323C816.934 115.684 812.18 120.439 798.63 120.439H731.355C729.691 120.439 728.741 121.152 728.741 122.816C728.741 137.555 731.831 149.44 738.012 158.236C746.332 170.36 757.029 176.54 770.104 176.54C777.948 176.54 785.318 174.639 791.974 170.597C797.679 167.032 802.909 161.564 805.761 158.711C810.04 154.433 814.319 157.285 814.319 161.326ZM848.289 108.791C848.289 110.217 849.002 110.93 850.428 110.93H892.98C908.432 110.93 914.85 107.364 914.85 95.716C914.85 89.298 912.235 83.3547 906.768 77.8871C901.538 72.4196 894.406 69.8047 885.611 69.8047C877.528 69.8047 870.397 72.4196 864.454 77.6494C852.33 88.109 848.289 100.47 848.289 108.791ZM932.204 161.326C932.204 166.556 926.736 172.975 915.563 180.344C906.292 186.525 895.595 189.615 883.709 189.615C867.544 189.615 853.994 183.91 843.297 172.737C832.599 161.326 827.37 146.588 827.37 128.283C827.37 109.979 833.075 94.29 844.248 80.7398C855.42 67.1898 869.921 60.2959 887.512 60.2959C901.062 60.2959 912.473 64.5749 921.506 73.3705C930.302 82.1661 934.818 92.15 934.818 103.323C934.818 115.684 930.064 120.439 916.514 120.439H849.24C847.576 120.439 846.625 121.152 846.625 122.816C846.625 137.555 849.715 149.44 855.896 158.236C864.216 170.36 874.913 176.54 887.988 176.54C895.833 176.54 903.202 174.639 909.858 170.597C915.563 167.032 920.793 161.564 923.646 158.711C927.925 154.433 932.204 157.285 932.204 161.326ZM1019.68 163.228C1022.3 163.228 1023.49 164.417 1023.49 166.556C1023.49 167.745 1022.77 169.647 1021.58 171.786C1015.64 181.295 1003.99 189.615 989.017 189.615C977.844 189.615 969.524 185.336 964.294 176.54C960.728 170.597 959.064 161.326 959.064 149.203C959.064 143.022 959.302 132.325 959.777 117.348C960.253 102.134 960.49 90.011 960.49 81.2152C960.49 79.5512 959.777 78.6003 958.113 78.6003H943.375C941.711 78.6003 940.76 77.8871 940.76 76.2231V69.567C940.76 68.3784 941.473 67.6652 942.661 67.1898C950.031 64.8126 955.26 61.96 958.113 58.6319C960.253 56.017 961.203 54.1153 961.917 50.074L962.867 46.746C963.581 45.082 964.769 38.6636 965.007 36.7618C965.245 35.0978 966.196 34.3846 967.622 34.3846H975.467C977.131 34.3846 977.844 35.0978 977.844 36.7618V62.1977C977.844 65.7635 979.032 66.9521 983.074 66.9521C987.59 66.9521 991.631 66.9521 995.673 66.7143C997.337 66.7143 1000.43 66.4766 1004.94 66.2389C1009.46 65.7635 1012.55 65.5258 1014.21 65.5258C1018.73 65.5258 1020.87 66.7143 1020.87 69.3293C1020.87 70.2801 1020.16 72.1819 1020.16 72.895C1018.97 78.6003 1016.83 79.7889 1010.17 79.7889C1007.08 79.7889 997.574 78.838 993.771 78.838C990.205 78.6003 985.926 78.6003 980.696 78.6003C978.795 78.6003 977.844 79.5512 977.844 81.6906C977.606 87.158 977.368 100.946 977.368 123.291C977.368 143.497 978.557 156.572 980.696 162.515C983.311 169.884 988.779 173.688 996.624 173.688C1008.03 173.688 1017.07 163.228 1019.68 163.228Z" fill="black"/>
</svg>
