<svg width="100%" height="100%" viewBox="0 0 131 26" fill="none" xmlns="http://www.w3.org/2000/svg"><path d="M27.0221 19.1666C27.7668 19.1666 28.5115 19.0099 29.1974 18.7355C29.8637 18.4416 30.4712 18.0496 30.9807 17.54C31.4903 17.0109 31.8823 16.423 32.1762 15.7567C32.4702 15.0708 32.6073 14.326 32.6073 13.5814C32.6073 12.8171 32.4702 12.092 32.1762 11.406C31.8823 10.7398 31.4903 10.1322 30.9807 9.62268C30.4516 9.11315 29.8637 8.72122 29.1974 8.42724C28.5115 8.13327 27.7668 7.99609 27.0221 7.99609C26.2774 7.99609 25.5327 8.13327 24.8467 8.42724C24.1805 8.72122 23.5925 9.11315 23.0634 9.62268C22.5538 10.1518 22.1619 10.7398 21.8679 11.406C21.5936 12.092 21.4368 12.8171 21.4368 13.5814C21.4368 14.326 21.5936 15.0708 21.8679 15.7567C22.1619 16.423 22.5538 17.0109 23.0634 17.54C23.5925 18.0496 24.1805 18.4416 24.8467 18.7355C25.5327 19.0099 26.2774 19.1666 27.0221 19.1666ZM27.0221 10.9357C28.4723 10.9357 29.6678 12.1312 29.6678 13.5814C29.6678 15.0316 28.4723 16.2271 27.0221 16.2271C25.5719 16.2271 24.3764 15.0316 24.3764 13.5814C24.3764 12.1312 25.5719 10.9357 27.0221 10.9357Z" fill="currentColor"></path><path d="M34.5537 15.7576C34.8477 16.4239 35.2396 17.0314 35.7492 17.541C36.2783 18.0505 36.8662 18.4621 37.5325 18.7364C38.2184 19.0304 38.9632 19.1675 39.7079 19.1675C40.4526 19.1675 41.1973 19.0304 41.8832 18.7364C42.5495 18.4621 43.1374 18.0505 43.6665 17.541C44.1761 17.0314 44.5681 16.4239 44.862 15.7576C45.156 15.0717 45.2931 14.3466 45.2931 13.5823V4.07753L42.3535 3.09766V8.66333C42.1967 8.58496 42.04 8.50659 41.8832 8.44779C41.1973 8.1538 40.4722 8.01661 39.7079 8.01661C38.9632 8.01661 38.2184 8.1538 37.5325 8.44779C36.8662 8.72213 36.2783 9.13371 35.7492 9.64324C35.2396 10.1528 34.8477 10.7602 34.5537 11.4266C34.2794 12.1125 34.1226 12.8376 34.1226 13.5823C34.1226 14.3466 34.2794 15.0717 34.5537 15.7576ZM39.7079 10.9366C41.1581 10.9366 42.3535 12.1321 42.3535 13.5823C42.3535 15.0521 41.1581 16.228 39.7079 16.228C38.2577 16.228 37.0622 15.0521 37.0622 13.5823C37.0622 12.1321 38.2577 10.9366 39.7079 10.9366Z" fill="currentColor"></path><path d="M52.5016 19.1077C53.2659 19.1077 54.0106 18.9508 54.7161 18.6373C55.4021 18.3434 56.0095 17.9122 56.5191 17.3831L54.4418 15.4234C53.9323 15.972 53.2463 16.266 52.5016 16.266C51.5414 16.266 50.6986 15.7565 50.2283 15.0118H58.0085V13.5812C58.0085 12.1113 57.4402 10.7199 56.4015 9.6813C55.3628 8.64259 53.9714 8.05469 52.5016 8.05469C51.0122 8.05469 49.6404 8.64259 48.5821 9.6813C47.5435 10.7199 46.9751 12.1113 46.9751 13.5812C46.9751 15.051 47.5435 16.4424 48.5821 17.4811C49.6404 18.5198 51.0122 19.1077 52.5016 19.1077ZM50.2283 12.1701C50.6986 11.4058 51.5414 10.8963 52.5016 10.8963C53.4423 10.8963 54.285 11.4058 54.7749 12.1701H50.2283Z" fill="currentColor"></path><path d="M62.7168 19.03V14.209C62.7168 12.3277 64.2453 10.7794 66.1463 10.7794V7.83984C65.284 7.83984 64.4413 8.01621 63.6574 8.34937C62.9127 8.66294 62.2268 9.13325 61.6389 9.72122C61.051 10.2896 60.6002 10.9754 60.2671 11.7397C59.9339 12.5236 59.7771 13.3467 59.7771 14.209V19.03H62.7168Z" fill="currentColor"></path><path d="M76.2231 9.74025C75.2824 8.81922 74.0478 8.30966 72.7348 8.30966C72.0293 8.30966 71.3629 8.44686 70.7554 8.72119V7.99609H67.8158V12.7975C67.7962 12.9542 67.7961 13.0914 67.7961 13.2482H67.8158V19.0294H70.7554V12.9542C70.8926 11.994 71.7157 11.2493 72.7348 11.2493C73.8322 11.2493 74.7337 12.1507 74.7337 13.2482V19.0294H77.6732V13.2455C77.6732 11.9129 77.1439 10.6782 76.2231 9.73759V9.74025Z" fill="currentColor"></path><path d="M80.412 19.0282H90.3672V16.1076H83.4866V3.74219L80.4097 4.72205L80.412 19.0282Z" fill="currentColor"></path><path d="M97.17 19.1666C97.9149 19.1666 98.6597 19.0099 99.3459 18.7355C100.012 18.4416 100.619 18.0496 101.129 17.54C101.638 17.0109 102.031 16.423 102.325 15.7567C102.619 15.0708 102.756 14.326 102.756 13.5814C102.756 12.8171 102.619 12.092 102.325 11.406C102.031 10.7398 101.638 10.1322 101.129 9.62268C100.6 9.11315 100.012 8.72122 99.3459 8.42724C98.6597 8.13327 97.9149 7.99609 97.17 7.99609C96.4259 7.99609 95.681 8.13327 94.9948 8.42724C94.3283 8.72122 93.7404 9.11315 93.2118 9.62268C92.7023 10.1518 92.31 10.7398 92.016 11.406C91.7419 12.092 91.585 12.8171 91.585 13.5814C91.585 14.326 91.7419 15.0708 92.016 15.7567C92.31 16.423 92.7023 17.0109 93.2118 17.54C93.7404 18.0496 94.3283 18.4416 94.9948 18.7355C95.681 19.0099 96.4259 19.1666 97.17 19.1666ZM97.17 10.9357C98.6201 10.9357 99.8159 12.1312 99.8159 13.5814C99.8159 15.0316 98.6201 16.2271 97.17 16.2271C95.7198 16.2271 94.5248 15.0316 94.5248 13.5814C94.5248 12.1312 95.7198 10.9357 97.17 10.9357Z" fill="currentColor"></path><path d="M109.895 19.1666C110.639 19.1666 111.384 19.0099 112.071 18.7355C112.737 18.4416 113.344 18.0496 113.854 17.54C114.363 17.0109 114.755 16.423 115.049 15.7567C115.343 15.0708 115.48 14.326 115.48 13.5814C115.48 12.8171 115.343 12.092 115.049 11.406C114.755 10.7398 114.363 10.1322 113.854 9.62268C113.325 9.11315 112.737 8.72122 112.071 8.42724C111.384 8.13327 110.639 7.99609 109.895 7.99609C109.15 7.99609 108.406 8.13327 107.72 8.42724C107.054 8.72122 106.466 9.11315 105.936 9.62268C105.427 10.1518 105.035 10.7398 104.741 11.406C104.466 12.092 104.31 12.8171 104.31 13.5814C104.31 14.326 104.466 15.0708 104.741 15.7567C105.035 16.423 105.427 17.0109 105.936 17.54C106.466 18.0496 107.054 18.4416 107.72 18.7355C108.406 19.0099 109.15 19.1666 109.895 19.1666ZM109.895 10.9357C111.345 10.9357 112.54 12.1312 112.54 13.5814C112.54 15.0316 111.345 16.2271 109.895 16.2271C108.445 16.2271 107.249 15.0316 107.249 13.5814C107.249 12.1312 108.445 10.9357 109.895 10.9357Z" fill="currentColor"></path><path d="M128.284 11.4256C127.99 10.7593 127.598 10.1714 127.088 9.64218C126.56 9.13265 125.972 8.74072 125.305 8.44681C124.619 8.15281 123.894 8.01562 123.13 8.01562C122.385 8.01562 121.64 8.15281 120.955 8.44681C120.289 8.74072 119.701 9.13265 119.171 9.64218C118.662 10.1518 118.27 10.7593 117.976 11.4256C117.701 12.1115 117.544 12.8366 117.544 13.6009V21.9298L120.484 22.9097V18.5199C120.641 18.5982 120.798 18.6766 120.955 18.7354C121.64 19.0294 122.385 19.1861 123.13 19.1861C123.875 19.1861 124.619 19.0294 125.305 18.7354C125.972 18.4611 126.56 18.0691 127.088 17.54C127.598 17.0304 127.99 16.4425 128.284 15.7762C128.578 15.0903 128.715 14.3456 128.715 13.6009C128.715 12.8366 128.578 12.1115 128.284 11.4256ZM123.13 16.2466C121.68 16.2466 120.484 15.0511 120.484 13.6009C120.484 12.1507 121.68 10.9552 123.13 10.9552C124.58 10.9552 125.776 12.1507 125.776 13.6009C125.776 15.0511 124.58 16.2466 123.13 16.2466Z" fill="currentColor"></path><path d="M15.9388 13.2689C15.9388 14.0492 16.589 14.6994 17.3693 14.6994C18.1712 14.6994 18.8214 14.0492 18.8214 13.2689V5.27157C18.8214 4.62138 18.3662 4.05786 17.7377 3.88448C17.1092 3.73277 16.4373 4.01453 16.134 4.57802L10.4774 15.0461L4.97238 4.59952C4.66894 4.01434 3.99707 3.7326 3.36857 3.88429C2.71837 4.05768 2.28491 4.62119 2.28491 5.27138V17.5818C2.28491 18.3621 2.93511 19.0123 3.71533 19.0123C4.51725 19.0123 5.16745 18.3621 5.16745 17.5818V10.2347L9.19851 18.2539C9.45861 18.7307 9.93546 19.0125 10.4556 19.0125C10.9757 19.0125 11.4526 18.7307 11.7126 18.2756L15.9388 10.1048V13.2689ZM18.8213 17.582C18.8213 16.7801 18.1711 16.1299 17.3692 16.1299C16.589 16.1299 15.9388 16.7801 15.9388 17.582C15.9388 18.3623 16.589 19.0125 17.3692 19.0125C18.1711 19.0125 18.8213 18.3623 18.8213 17.582Z" fill="currentColor"></path></svg>