<svg xmlns="http://www.w3.org/2000/svg" width="337" height="154" fill="none"><path fill="color(display-p3 .1333 .1382 .1313)" d="M51.328 123.664c-27.136 0-46.592-19.968-46.592-46.464 0-26.24 19.584-46.464 46.72-46.464 27.392 0 46.848 20.48 46.848 46.464 0 26.24-19.584 46.464-46.976 46.464zM21.888 77.2c0 18.304 13.184 30.464 29.568 30.464S81.152 95.504 81.152 77.2c0-18.048-13.312-30.464-29.696-30.464S21.888 59.152 21.888 77.2zm122.328-23.168c17.92 0 29.696 15.104 29.696 34.816 0 19.712-11.776 34.816-29.696 34.816-10.368 0-17.792-5.376-20.608-14.336h-2.56v39.552h-15.872V55.696h15.872v12.672h2.688c2.56-8.96 10.752-14.336 20.48-14.336zm-23.808 34.816c0 12.544 8.576 20.224 18.56 20.224 10.496 0 18.688-8.192 18.688-20.224 0-12.288-8.192-20.224-18.688-20.224-10.496 0-18.56 8.576-18.56 20.224zM178.246 122V55.696h16V122h-16zm-.128-76.8V27.792h16.256V45.2h-16.256zm25.633 76.8V55.696h16v12.672h2.56c1.92-7.552 8.704-14.336 18.56-14.336 14.848 0 22.016 11.008 22.016 23.168V122h-16V82.832c0-7.808-5.632-13.44-13.312-13.44-8.32 0-13.824 6.016-13.824 14.08V122h-16zm98.031 1.664c-19.584 0-34.176-14.08-34.176-35.072 0-19.968 13.824-34.56 33.792-34.56 19.968 0 32.128 15.36 31.872 32.128l-.128 8.064H283.35c1.792 9.984 8.832 15.488 18.432 15.488 7.04 0 13.184-3.712 16-8.192l11.648 7.936c-5.504 8.448-14.72 14.208-27.648 14.208zm-18.048-42.368h34.048c-.384-7.296-7.04-14.08-16.384-14.08-9.088 0-15.488 5.376-17.664 14.08z"/></svg>