<svg width="123" height="28" viewBox="0 0 123 28" fill="none" xmlns="http://www.w3.org/2000/svg">
<g clip-path="url(#clip0_2035_524)">
<path fill-rule="evenodd" clip-rule="evenodd" d="M17.697 5.6C17.697 4.78 17.4567 4.01614 17.0426 3.375C16.3308 3.65031 15.6874 4.12703 15.2054 4.79041C14.1801 6.20168 14.184 8.04673 15.0753 9.43C16.6094 8.8348 17.697 7.34441 17.697 5.6ZM13.5904 0C15.1584 0 16.5759 0.644443 17.5924 1.68291C19.0253 1.44029 20.5508 1.7521 21.8194 2.67375C23.0879 3.59541 23.8559 4.94996 24.0679 6.38763C25.3697 7.03353 26.4206 8.1825 26.9052 9.67376C27.3897 11.165 27.2148 12.7123 26.5413 14C27.2148 15.2877 27.3897 16.835 26.9052 18.3262C26.4206 19.8175 25.3697 20.9665 24.0679 21.6124C23.8559 23.05 23.0879 24.4046 21.8194 25.3262C20.5508 26.2479 19.0253 26.5597 17.5924 26.3171C16.5759 27.3556 15.1584 28 13.5904 28C12.0224 28 10.6049 27.3556 9.58831 26.3171C8.1555 26.5597 6.62994 26.2479 5.3614 25.3262C4.09285 24.4046 3.32487 23.05 3.11286 21.6124C1.81107 20.9665 0.76014 19.8175 0.275598 18.3262C-0.208944 16.835 -0.0340692 15.2877 0.639444 14C-0.0340716 12.7123 -0.208947 11.165 0.275595 9.67376C0.760139 8.18248 1.81108 7.03351 3.11287 6.38761C3.32488 4.94996 4.09286 3.59541 5.3614 2.67376C6.62995 1.75211 8.15551 1.4403 9.58832 1.68292C10.6049 0.644444 12.0224 0 13.5904 0ZM19.1904 5.6C19.1904 4.70071 18.9784 3.85093 18.6017 3.0979C19.4155 3.11183 20.2332 3.36718 20.9416 3.88189C21.6501 4.39659 22.1456 5.0954 22.4103 5.86502C21.5777 5.73945 20.704 5.80044 19.8488 6.07834C19.6025 6.15834 19.3656 6.25379 19.1388 6.36326C19.1728 6.11369 19.1904 5.8589 19.1904 5.6ZM20.3102 7.49858C21.0901 7.24519 21.8908 7.23771 22.6285 7.43339C22.5867 8.19546 22.3321 8.9547 21.8501 9.61809C20.8248 11.0294 19.0689 11.5958 17.4779 11.1756C17.5699 9.5326 18.6512 8.03764 20.3102 7.49858ZM23.0583 10.4958C22.9061 10.7053 22.7421 10.9011 22.5679 11.083C22.8158 11.1278 23.0635 11.1898 23.3098 11.2698C24.165 11.5477 24.9077 12.0119 25.5075 12.6029C25.7457 11.8246 25.7555 10.968 25.4849 10.1352C25.2143 9.30242 24.7029 8.61519 24.0527 8.12559C23.9149 8.95623 23.5869 9.76831 23.0583 10.4958ZM13.9973 3.91265C14.5259 3.18512 15.1969 2.62223 15.9442 2.23444C15.2777 1.7674 14.466 1.49333 13.5904 1.49333C12.7147 1.49333 11.9031 1.7674 11.2365 2.23444C11.9839 2.62223 12.6549 3.18512 13.1835 3.91266C13.3357 4.12211 13.4712 4.33856 13.5904 4.56045C13.7096 4.33856 13.8451 4.1221 13.9973 3.91265ZM11.9754 4.79042C11.4934 4.12702 10.85 3.65031 10.1381 3.375C9.72405 4.01614 9.48371 4.78 9.48371 5.6C9.48371 7.34442 10.5714 8.83481 12.1055 9.43001C12.9968 8.04674 13.0007 6.20168 11.9754 4.79042ZM7.99038 5.6C7.99038 4.70071 8.20236 3.85093 8.57907 3.0979C7.76531 3.11185 6.94759 3.36719 6.23916 3.88189C5.53074 4.39659 5.03519 5.0954 4.77047 5.86502C5.60305 5.73945 6.47674 5.80044 7.33201 6.07833C7.57823 6.15834 7.81512 6.25378 8.04196 6.36325C8.00795 6.11369 7.99038 5.85889 7.99038 5.6ZM4.77046 22.135C5.03519 22.9046 5.53073 23.6034 6.23916 24.1181C6.94758 24.6328 7.76531 24.8881 8.57906 24.9021C8.20236 24.1491 7.99038 23.2993 7.99038 22.4C7.99038 22.1411 8.00795 21.8863 8.04196 21.6367C7.81512 21.7462 7.57823 21.8417 7.33201 21.9217C6.47674 22.1996 5.60305 22.2605 4.77046 22.135ZM11.2365 25.7656C11.9031 26.2326 12.7147 26.5067 13.5904 26.5067C14.466 26.5067 15.2777 26.2326 15.9442 25.7656C15.1969 25.3778 14.5259 24.8149 13.9973 24.0873C13.8451 23.8779 13.7096 23.6614 13.5904 23.4395C13.4712 23.6614 13.3357 23.8779 13.1835 24.0873C12.6549 24.8149 11.9839 25.3778 11.2365 25.7656ZM12.1055 18.57C12.9968 19.9533 13.0007 21.7983 11.9754 23.2096C11.4934 23.873 10.8499 24.3497 10.1381 24.625C9.72404 23.9839 9.48371 23.22 9.48371 22.4C9.48372 20.6556 10.5714 19.1652 12.1055 18.57ZM9.70291 16.8244C9.61092 18.4674 8.52959 19.9624 6.87054 20.5014C6.09068 20.7548 5.28994 20.7623 4.55223 20.5666C4.59409 19.8045 4.84865 19.0453 5.33063 18.3819C6.35597 16.9706 8.11192 16.4042 9.70291 16.8244ZM4.61286 16.917C4.43865 17.0989 4.27467 17.2947 4.1225 17.5041C3.59391 18.2317 3.26591 19.0438 3.12806 19.8744C2.47791 19.3848 1.96644 18.6976 1.69584 17.8648C1.42525 17.032 1.43509 16.1753 1.6733 15.3971C2.27306 15.9881 3.01574 16.4523 3.87102 16.7302C4.11724 16.8102 4.365 16.8722 4.61286 16.917ZM9.70291 11.1756C8.11192 11.5958 6.35598 11.0294 5.33064 9.6181C4.84866 8.9547 4.5941 8.19546 4.55224 7.43338C5.28994 7.23771 6.09068 7.24519 6.87054 7.49858C8.52958 8.03764 9.61092 9.53261 9.70291 11.1756ZM17.0427 24.625C16.3308 24.3497 15.6874 23.873 15.2054 23.2096C14.1801 21.7983 14.184 19.9533 15.0753 18.57C16.6094 19.1652 17.697 20.6556 17.697 22.4C17.697 23.22 17.4567 23.9839 17.0427 24.625ZM18.6017 24.9021C18.9784 24.1491 19.1904 23.2993 19.1904 22.4C19.1904 22.1411 19.1728 21.8863 19.1388 21.6367C19.3656 21.7462 19.6025 21.8416 19.8488 21.9217C20.704 22.1995 21.5777 22.2605 22.4103 22.135C22.1456 22.9046 21.6501 23.6034 20.9416 24.1181C20.2332 24.6328 19.4155 24.8882 18.6017 24.9021ZM4.61286 11.083C4.43866 10.9011 4.27468 10.7053 4.12251 10.4959C3.59392 9.76831 3.26592 8.95622 3.12807 8.12558C2.47791 8.61517 1.96644 9.30241 1.69584 10.1352C1.42524 10.968 1.43509 11.8247 1.6733 12.6029C2.27306 12.0119 3.01574 11.5477 3.87102 11.2698C4.11725 11.1898 4.365 11.1278 4.61286 11.083ZM8.7852 14C7.74506 15.2751 5.99152 15.849 4.33248 15.3099C3.55262 15.0565 2.90041 14.5919 2.41861 14C2.90041 13.4081 3.55262 12.9435 4.33248 12.6901C5.99152 12.151 7.74506 12.7249 8.7852 14ZM22.8483 15.3099C23.6282 15.0565 24.2804 14.5919 24.7622 14C24.2804 13.4081 23.6282 12.9435 22.8483 12.6901C21.1892 12.151 19.4357 12.7249 18.3956 14C19.4357 15.2751 21.1892 15.849 22.8483 15.3099ZM25.4849 17.8648C25.2143 18.6976 24.7029 19.3848 24.0527 19.8744C23.9149 19.0438 23.5869 18.2317 23.0583 17.5041C22.9061 17.2947 22.7421 17.0989 22.5679 16.917C22.8158 16.8722 23.0635 16.8102 23.3098 16.7302C24.165 16.4523 24.9077 15.9881 25.5075 15.3971C25.7457 16.1753 25.7555 17.032 25.4849 17.8648ZM21.8502 18.3819C20.8248 16.9706 19.0689 16.4042 17.4779 16.8244C17.5699 18.4674 18.6512 19.9624 20.3102 20.5014C21.0901 20.7548 21.8908 20.7623 22.6286 20.5666C22.5867 19.8045 22.3321 19.0453 21.8502 18.3819ZM16.2533 13.1347C16.7312 14.6055 15.9263 16.1851 14.4556 16.6629C12.9849 17.1408 11.4053 16.3359 10.9274 14.8652C10.4496 13.3945 11.2544 11.8149 12.7251 11.337C14.1958 10.8592 15.7755 11.664 16.2533 13.1347ZM93.9408 2.6546V25.0884H96.9319V16.1149C96.9319 13.8416 98.5172 12.1665 100.82 12.1665C102.825 12.1665 104.47 13.6621 104.47 15.7858V25.0884H107.461V14.9184C107.461 11.9571 105.517 9.32491 101.957 9.32491C99.624 9.32491 98.0387 10.7308 97.5302 12.4656H96.9319V2.6546H93.9408ZM36.9861 4.15019V25.0884H40.067V17.2216H44.823C48.6816 17.2216 51.5531 14.38 51.5531 10.6111C51.5531 6.81233 48.7414 4.15019 44.823 4.15019H36.9861ZM44.5837 14.38H40.067V6.96189H44.5837C46.827 6.96189 48.4124 8.48739 48.4124 10.6111C48.4124 12.7947 46.827 14.38 44.5837 14.38ZM67.8753 25.0884V9.71377H70.8365V12.9741H71.4647C71.9134 11.4786 73.3491 9.44456 76.4599 9.44456V12.6451H75.4429C72.3321 12.6451 70.8664 14.8586 70.8664 17.3413V25.0884H67.8753ZM84.8616 25.4772C80.1954 25.4772 76.8453 22.0374 76.8453 17.4011C76.8453 12.7648 80.2552 9.32491 84.8616 9.32491C88.0323 9.32491 90.7542 10.8803 91.9806 13.9014L89.4082 15.2474C88.8698 13.5724 87.1648 12.0768 84.8616 12.0768C81.9901 12.0768 79.8963 14.2903 79.8963 17.4011C79.8963 20.6315 82.0798 22.7254 84.8616 22.7254C86.9554 22.7254 88.8698 21.6186 89.6475 19.3753L92.19 20.5717C90.9935 23.9218 88.122 25.4772 84.8616 25.4772ZM109.384 20.5418C109.384 23.4732 111.657 25.4772 114.888 25.4772C117.4 25.4772 119.105 24.191 119.524 22.2169H120.122V25.0884H122.755V15.3073C122.755 12.2264 120.541 9.32491 116.204 9.32491C113.003 9.32491 110.7 11.0598 110.042 13.7818L112.704 14.5296C112.914 13.2733 114.02 11.9272 116.204 11.9272C118.477 11.9272 119.823 13.4228 119.823 15.3073V15.726H115.007C111.627 15.726 109.384 17.6703 109.384 20.5418ZM112.405 20.482C112.405 22.0374 113.781 22.9647 115.456 22.9647C118.597 22.9647 119.823 20.6914 119.823 18.5078V18.089H115.337C113.452 18.089 112.405 19.0462 112.405 20.482ZM57.7707 25.4772C54.5402 25.4772 52.2669 23.4731 52.2669 20.5418C52.2669 17.6703 54.5103 15.726 57.8904 15.726H62.7061V15.3073C62.7061 13.4228 61.3601 11.9272 59.0868 11.9272C56.9033 11.9272 55.7965 13.2733 55.5871 14.5295L52.925 13.7818C53.5831 11.0598 55.8863 9.32491 59.0868 9.32491C63.424 9.32491 65.6375 12.2263 65.6375 15.3073V25.0884H63.0053V22.2169H62.407C61.9883 24.191 60.2833 25.4772 57.7707 25.4772ZM58.339 22.9647C56.664 22.9647 55.288 22.0374 55.288 20.482C55.288 19.0462 56.3349 18.089 58.2194 18.089H62.7061V18.5078C62.7061 20.6914 61.4798 22.9647 58.339 22.9647Z" fill="#334155"/>
</g>
<defs>
<clipPath id="clip0_2035_524">
<rect width="122.755" height="28" fill="white"/>
</clipPath>
</defs>
</svg>
