<svg class="w-full" width="131" height="29" viewBox="0 0 131 29" fill="none" xmlns="http://www.w3.org/2000/svg"><g clip-path="url(#clip0_1809_11776)"><path d="M43.0198 5.82256L42.6631 9.09503C42.0157 8.80139 41.3143 8.65229 40.6057 8.65777C38.4676 8.65777 36.3296 10.4751 36.3296 13.5289V23.53H33V5.78583H36.3142V8.54935C37.0978 6.69533 39.0935 5.42202 40.8749 5.42202C41.6085 5.41372 42.3366 5.54972 43.0198 5.82256Z" fill="#2554FD"></path><path d="M61.1679 15.2744H47.2697C47.5903 18.6921 49.8707 20.8714 53.0786 20.8714C55.2869 20.8714 57.2484 19.8534 58.1382 18.2478L60.7752 19.9969C59.4567 22.3949 56.5351 23.8868 52.9723 23.8868C48.019 23.8868 44.0566 19.8867 44.0566 14.5801C44.0566 9.45528 47.9401 5.41849 52.9294 5.41849C57.5964 5.41849 61.2313 9.12827 61.2313 13.8892C61.2381 14.2932 61.2055 14.8371 61.1679 15.2744ZM57.8536 12.7296C57.6393 10.0762 55.5373 8.22225 52.794 8.22225C50.0507 8.22225 48.019 10.0028 47.412 12.7296H57.8536Z" fill="#2554FD"></path><path d="M82.9199 14.6554C82.9199 19.7819 79.179 23.8904 74.44 23.8904C71.4104 23.8904 69.1246 22.4352 67.8475 19.9638V28.5639H64.5332V5.52332H67.8475V9.34876C69.1298 6.87735 71.4104 5.42215 74.44 5.42215C79.179 5.42215 82.9199 9.5377 82.9199 14.6554ZM79.7136 14.6554C79.7175 13.859 79.5656 13.0696 79.2677 12.3335C78.9691 11.5974 78.5303 10.9292 77.9768 10.3678C77.4226 9.80636 76.7648 9.36297 76.0412 9.0634C75.3182 8.76383 74.543 8.61414 73.7626 8.62294C70.3764 8.62294 67.8475 11.1661 67.8475 14.6554C67.8475 18.1448 70.3764 20.6915 73.7626 20.6915C74.5436 20.7001 75.3182 20.55 76.0418 20.2501C76.7655 19.9503 77.4233 19.5066 77.9775 18.9449C78.531 18.3831 78.9697 17.7146 79.2683 16.9781C79.5663 16.2417 79.7175 15.4522 79.7136 14.6554Z" fill="#2554FD"></path><path d="M103.421 14.6921C103.421 19.8904 99.4655 23.8905 94.4415 23.8905C89.3805 23.8905 85.4609 19.8904 85.4609 14.6921C85.4609 9.459 89.3805 5.42215 94.4415 5.42215C99.4655 5.42215 103.421 9.459 103.421 14.6921ZM88.6757 14.6921C88.6757 18.0731 91.1688 20.6914 94.4487 20.6914C97.6909 20.6914 100.221 18.0679 100.221 14.6921C100.221 11.2395 97.6909 8.62294 94.4487 8.62294C91.1616 8.62294 88.6685 11.2395 88.6685 14.6921H88.6757Z" fill="#2554FD"></path><path d="M123.962 14.6921C123.962 19.8904 120.006 23.8905 114.983 23.8905C109.923 23.8905 106.002 19.8904 106.002 14.6921C106.002 9.459 109.923 5.42215 114.983 5.42215C119.999 5.42215 123.962 9.459 123.962 14.6921ZM109.217 14.6921C109.217 18.0731 111.711 20.6914 114.99 20.6914C118.232 20.6914 120.762 18.0679 120.762 14.6921C120.762 11.2395 118.232 8.62294 114.99 8.62294C111.697 8.62294 109.203 11.2395 109.203 14.6921H109.217Z" fill="#2554FD"></path><path d="M130.389 23.5301H127.076V0H130.389V23.5301Z" fill="#2554FD"></path><path fill-rule="evenodd" clip-rule="evenodd" d="M12.2513 4.24133C14.37 4.24273 16.4016 5.10199 17.8997 6.63032C19.3979 8.15863 20.2401 10.231 20.2415 12.3925C21.5762 12.3468 22.866 11.9616 24.0002 11.2872V0.167358H13.0579C12.4124 1.30851 12.042 2.60251 11.9937 3.94181C11.9446 2.60239 11.5735 1.30842 10.9275 0.167358H0V11.3008C0.303579 11.48 0.619048 11.6391 0.944506 11.7767C1.91426 12.1867 2.95371 12.3977 4.00344 12.3977H4.23524C4.23592 11.325 4.44386 10.263 4.8472 9.27235C5.25053 8.28171 5.84133 7.38196 6.5858 6.62439C7.33033 5.86688 8.21385 5.26648 9.18598 4.85758C10.1581 4.44868 11.1998 4.23926 12.2513 4.24133ZM10.9438 24.6507H0V13.527C0.309774 13.3429 0.632011 13.18 0.964677 13.0396C1.9344 12.6302 2.97369 12.4198 4.02317 12.4205H4.25504C4.25776 14.5819 5.10133 16.6539 6.60047 18.1812C8.09957 19.7085 10.1317 20.5664 12.2505 20.5664C14.3687 20.5664 16.4003 19.7083 17.8986 18.1808C19.3969 16.6533 20.2393 14.5814 20.2406 12.4205C21.5745 12.4618 22.8646 12.8424 24.0002 13.5126V24.6507H13.1017C12.4406 23.4979 12.0615 22.1867 12.0134 20.8291C11.9706 22.1851 11.5979 23.4961 10.9438 24.6507ZM14.4499 14.6809C12.9607 16.1452 12.0861 18.1414 12.0101 20.25C11.9364 18.1803 11.0936 16.2167 9.65277 14.7576C8.21196 13.2985 6.28103 12.4532 4.25168 12.3932C6.27931 12.3333 8.20883 11.4895 9.64938 10.0327C11.0899 8.57581 11.9338 6.61481 12.0101 4.54696C12.0861 6.65549 12.9607 8.65182 14.4499 10.1161C15.9391 11.5804 17.9269 12.3985 19.9952 12.3985C17.9269 12.3984 15.9391 13.2166 14.4499 14.6809Z" fill="#2554FD"></path></g><defs><clipPath id="clip0_1809_11776"><rect width="130.39" height="28.6858" fill="white"></rect></clipPath></defs></svg>