<svg width="398" height="144" viewBox="0 0 398 144" fill="none" xmlns="http://www.w3.org/2000/svg">
<g clip-path="url(#clip0_4003_636)">
<path d="M116.27 100.8C111.93 105.64 106.51 109.5 100.4 112H127.92L136.21 100.8H116.27Z" fill="#118362"/>
<path d="M84.1 32C62.01 32 44.1 49.91 44.1 72C44.1 81.74 47.6 90.66 53.39 97.6H70.93C61.66 92.81 55.3 83.14 55.3 72C55.3 56.12 68.22 43.2 84.1 43.2C99.98 43.2 112.9 56.12 112.9 72C112.9 87.88 99.98 100.8 84.1 100.8H56.36H40.29L32 112H84.1C106.19 112 124.1 94.09 124.1 72C124.1 49.91 106.2 32 84.1 32Z" fill="#118362"/>
<path d="M143.12 87.68V56.32H155.08C157.23 56.32 159.13 56.69 160.77 57.44C162.41 58.19 163.7 59.25 164.62 60.64C165.54 62.03 166.01 63.68 166.01 65.59C166.01 67.68 165.44 69.43 164.31 70.83C163.18 72.23 161.61 73.23 159.61 73.83L168.17 87.67H160.02L152.54 74.9H150.21V87.67H143.13L143.12 87.68ZM150.2 68.91H154.95C156.06 68.91 156.88 68.74 157.44 68.4C158 68.06 158.37 67.63 158.58 67.12C158.79 66.61 158.89 66.11 158.89 65.6C158.89 65.09 158.78 64.59 158.58 64.1C158.37 63.61 157.99 63.2 157.44 62.87C156.89 62.54 156.06 62.38 154.95 62.38H150.2V68.92V68.91Z" fill="#118362"/>
<path d="M185.1 88.22C182.17 88.22 179.77 87.64 177.89 86.47C176.01 85.31 174.62 83.75 173.72 81.81C172.82 79.87 172.38 77.72 172.38 75.36V56.32H179.41V75.4C179.41 77.43 179.9 78.99 180.89 80.08C181.88 81.17 183.32 81.72 185.24 81.72C187.16 81.72 188.58 81.18 189.61 80.08C190.64 78.99 191.16 77.43 191.16 75.4V56.32H198.19V75.36C198.19 77.81 197.79 79.86 196.98 81.5C196.17 83.14 195.12 84.46 193.82 85.44C192.52 86.43 191.1 87.14 189.56 87.57C188.02 88 186.53 88.22 185.1 88.22Z" fill="#118362"/>
<path d="M206.24 87.68V56.32H213.32L226.72 76.08V56.32H233.8V87.68H226.72L213.32 68.01V87.68H206.24Z" fill="#118362"/>
<path d="M242.85 87.68V56.32H249.93V81.54H262.74V87.68H242.85Z" fill="#118362"/>
<path d="M282.09 88.22C279.94 88.22 277.89 87.85 275.93 87.1C273.97 86.35 272.23 85.28 270.69 83.87C269.15 82.47 267.94 80.76 267.06 78.76C266.18 76.76 265.74 74.5 265.74 72C265.74 69.5 266.18 67.24 267.06 65.24C267.94 63.24 269.15 61.54 270.69 60.13C272.23 58.73 273.98 57.65 275.93 56.9C277.89 56.15 279.94 55.78 282.09 55.78C284.24 55.78 286.3 56.15 288.27 56.9C290.24 57.65 291.99 58.72 293.53 60.13C295.07 61.53 296.29 63.24 297.18 65.24C298.08 67.24 298.52 69.5 298.52 72C298.52 74.5 298.07 76.76 297.18 78.76C296.29 80.76 295.07 82.46 293.53 83.87C291.99 85.27 290.24 86.35 288.27 87.1C286.3 87.85 284.24 88.22 282.09 88.22ZM282.09 81.81C283.55 81.81 284.99 81.45 286.39 80.73C287.79 80.01 288.95 78.93 289.86 77.48C290.77 76.03 291.23 74.2 291.23 71.99C291.23 69.78 290.77 67.91 289.84 66.46C288.91 65.01 287.75 63.94 286.35 63.23C284.95 62.53 283.53 62.18 282.09 62.18C280.65 62.18 279.25 62.53 277.86 63.23C276.47 63.93 275.32 65.01 274.41 66.46C273.5 67.91 273.04 69.75 273.04 71.99C273.04 74.23 273.49 76.03 274.38 77.48C275.28 78.93 276.42 80.01 277.81 80.73C279.2 81.45 280.62 81.81 282.09 81.81Z" fill="#118362"/>
<path d="M319.95 88.22C317.8 88.22 315.75 87.85 313.79 87.1C311.83 86.35 310.09 85.28 308.55 83.87C307.01 82.47 305.8 80.76 304.92 78.76C304.04 76.76 303.6 74.5 303.6 72C303.6 69.5 304.04 67.24 304.92 65.24C305.8 63.24 307.01 61.54 308.55 60.13C310.09 58.73 311.84 57.65 313.79 56.9C315.75 56.15 317.8 55.78 319.95 55.78C322.1 55.78 324.16 56.15 326.13 56.9C328.1 57.65 329.85 58.72 331.39 60.13C332.93 61.53 334.15 63.24 335.04 65.24C335.94 67.24 336.38 69.5 336.38 72C336.38 74.5 335.93 76.76 335.04 78.76C334.15 80.76 332.93 82.46 331.39 83.87C329.85 85.27 328.1 86.35 326.13 87.1C324.16 87.85 322.1 88.22 319.95 88.22ZM319.95 81.81C321.41 81.81 322.85 81.45 324.25 80.73C325.65 80.01 326.81 78.93 327.72 77.48C328.63 76.03 329.09 74.2 329.09 71.99C329.09 69.78 328.63 67.91 327.7 66.46C326.77 65.01 325.61 63.94 324.21 63.23C322.81 62.53 321.39 62.18 319.95 62.18C318.51 62.18 317.11 62.53 315.72 63.23C314.33 63.93 313.18 65.01 312.27 66.46C311.36 67.91 310.9 69.75 310.9 71.99C310.9 74.23 311.35 76.03 312.24 77.48C313.14 78.93 314.28 80.01 315.67 80.73C317.06 81.45 318.48 81.81 319.95 81.81Z" fill="#118362"/>
<path d="M342.12 87.68V56.32H354.58C356.73 56.32 358.67 56.71 360.4 57.49C362.13 58.27 363.5 59.39 364.5 60.85C365.5 62.31 366 64.06 366 66.09C366 68.12 365.51 69.83 364.54 71.31C363.57 72.79 362.22 73.93 360.51 74.74C358.8 75.55 356.81 75.95 354.57 75.95H349.19V87.69H342.11L342.12 87.68ZM349.2 69.89H354.4C356.07 69.89 357.23 69.51 357.87 68.75C358.51 67.99 358.83 67.1 358.83 66.08C358.83 65.12 358.51 64.27 357.87 63.5C357.23 62.73 356.07 62.36 354.4 62.36H349.2V69.89Z" fill="#118362"/>
</g>
<defs>
<clipPath id="clip0_4003_636">
<rect width="334" height="80" fill="white" transform="translate(32 32)"/>
</clipPath>
</defs>
</svg>
