<svg width="94" height="33" viewBox="0 0 94 33" fill="none" xmlns="http://www.w3.org/2000/svg">
<g clip-path="url(#clip0_720_7941)">
<path d="M9.93001 11.6039C8.91634 11.1871 7.89496 10.7909 6.92246 10.2892C5.68239 9.64856 4.45776 8.75838 3.98695 7.44371C3.36949 5.71996 4.33941 3.66948 5.94996 2.79217C7.5605 1.91486 9.61099 2.11039 11.2112 3.00571C12.8115 3.90102 13.9924 5.41123 14.808 7.05265C14.9237 7.05265 15.0395 7.05522 15.1527 7.05779C15.1527 5.4704 15.1527 3.88559 15.1527 2.2982C13.3595 1.61899 11.5045 1.05813 9.59298 0.908911C7.68142 0.759691 5.70297 1.04012 4.02297 1.96374C1.26755 3.47909 -0.211788 6.77736 0.629503 9.83894C0.768431 10.3483 0.976824 10.8423 1.24954 11.2951C2.15772 12.8053 3.71424 13.8113 5.31192 14.5574C6.9096 15.3035 8.60247 15.8515 10.1281 16.7365C11.0311 17.2588 11.8879 17.92 12.423 18.8153C13.043 19.8572 13.1614 21.2131 12.6211 22.3014C11.803 23.9479 9.7422 24.6194 7.90525 24.5011C4.57096 24.2901 1.4888 21.8589 0.50601 18.6635C0.367082 18.6661 0.230726 18.6712 0.0917969 18.6738C0.171552 20.7474 0.248735 22.8185 0.32849 24.8921C2.65941 25.8543 5.12668 26.6107 7.64798 26.6004C10.1693 26.5901 12.7703 25.7334 14.4812 23.881C15.518 22.7567 16.1895 21.3057 16.3902 19.7878C16.5703 18.4217 16.3619 16.9912 15.6981 15.7871C14.8491 14.2461 13.3338 13.181 11.7541 12.4066C11.1572 12.1133 10.5449 11.8534 9.93001 11.6013V11.6039Z" fill="black"/>
<path d="M54.0136 8.00208V8.32625C53.674 8.46775 53.3499 8.67357 53.036 8.93857C52.7221 9.20356 52.4005 9.59977 52.0763 10.1323C51.7522 10.6649 51.3791 11.3544 50.9701 12.2085C50.5584 13.0653 50.0722 14.1535 49.519 15.4785L44.8418 26.495H44.1162L38.8575 13.9606C38.3224 12.7102 37.8593 11.6991 37.4605 10.9273C37.0592 10.1581 36.6964 9.56889 36.3722 9.15982C36.0481 8.75076 35.7136 8.47547 35.374 8.32882V8.00466H42.9894V8.32882C42.287 8.57066 41.9397 9.03633 41.9397 9.73612C41.9397 9.95481 41.9628 10.1735 42.0117 10.405C42.0606 10.634 42.1455 10.9222 42.2639 11.2695C42.3822 11.6168 42.5546 12.0722 42.7707 12.6253L46.2156 21.1849L48.3922 15.4425C48.8733 14.1638 49.2077 13.181 49.3904 12.4813C49.5705 11.7815 49.6631 11.2026 49.6631 10.7472C49.6631 9.64093 48.9993 8.83051 47.6692 8.32882V8.00466H54.0162V7.99951L54.0136 8.00208Z" fill="black"/>
<path d="M73.5198 8.00208V8.32625C73.1802 8.46775 72.8561 8.67357 72.5422 8.93857C72.2283 9.20356 71.9067 9.59977 71.5826 10.1323C71.2584 10.6649 70.8853 11.3544 70.4763 12.2085C70.0646 13.0653 69.5784 14.1535 69.0252 15.4785L64.3505 26.495H63.625L58.3663 13.9606C57.8312 12.7102 57.3681 11.6991 56.9693 10.9273C56.568 10.1581 56.2052 9.56889 55.881 9.15982C55.5569 8.75076 55.2224 8.47547 54.8828 8.32882V8.00466H62.4982V8.32882C61.7958 8.57066 61.4485 9.03633 61.4485 9.73612C61.4485 9.95481 61.4716 10.1735 61.5205 10.405C61.5694 10.634 61.6543 10.9222 61.7726 11.2695C61.891 11.6168 62.0634 12.0722 62.2795 12.6253L65.7244 21.1849L67.9009 15.4425C68.3821 14.1638 68.7165 13.181 68.8992 12.4813C69.0793 11.7815 69.1719 11.2026 69.1719 10.7472C69.1719 9.64093 68.5081 8.83051 67.178 8.32882V8.00466H73.525V7.99951L73.5198 8.00208Z" fill="black"/>
<path d="M86.6774 8.00173V8.32589C88.0075 8.807 88.6713 9.61485 88.6713 10.7443C88.6713 11.1997 88.5812 11.7811 88.3986 12.4783C88.2185 13.1781 87.8737 14.166 87.3643 15.4396L85.2263 21.1485L81.7814 12.6224C81.5628 12.0435 81.3955 11.5856 81.2746 11.2485C81.1563 10.9115 81.0688 10.6311 81.0225 10.397C80.9736 10.168 80.9504 9.94416 80.9504 9.72805C80.9504 9.02826 81.2977 8.56002 82.0001 8.32075V7.99658H74.3848V8.32075C74.7244 8.46225 75.0563 8.74268 75.383 9.15175C75.7072 9.56082 76.0699 10.15 76.4713 10.9192C76.8726 11.6885 77.3357 12.7022 77.8683 13.9525L82.9829 26.0548L82.669 26.7262L82.4786 27.1302C82.4169 27.2691 82.3603 27.4054 82.2934 27.5392C82.1699 27.7914 82.0361 28.0383 81.874 28.2699C81.0148 29.51 79.327 29.9293 78.0278 29.0777C77.8837 28.9825 77.7499 28.8771 77.6316 28.7587C77.4927 28.6172 77.3692 28.4551 77.2457 28.3033C76.2397 28.54 75.7895 30.1377 76.3195 31.0279C76.744 31.7405 77.5853 32.1059 78.4291 32.1316C78.635 32.1367 78.8408 32.1213 79.0389 32.0879C80.6083 31.8177 81.73 30.6291 82.5172 29.2836L82.5327 29.2553L82.5764 29.1755L82.6099 29.1086L82.6382 29.052L82.6665 28.9954L82.6948 28.9388L82.7719 28.787L82.862 28.6018L82.952 28.4062L83.0627 28.1721L83.4151 27.4106L83.729 26.7314L83.8576 26.4561L88.5323 15.4756C89.0906 14.1506 89.5717 13.0598 89.9834 12.2056C90.395 11.3489 90.7603 10.6645 91.0897 10.1474C91.4138 9.63028 91.7328 9.23408 92.0493 8.95365C92.3632 8.67836 92.6873 8.46482 93.0269 8.32075V7.99658H86.68L86.6748 8.00173H86.6774Z" fill="black"/>
<path d="M33.3349 13.634C33.0905 12.1418 32.6943 10.93 32.136 10.0038C31.5777 9.07766 30.8239 8.40102 29.8694 7.97909C28.9149 7.55716 27.7135 7.34619 26.2624 7.34619C24.8114 7.34619 23.471 7.55973 22.2206 8.17205C21.4385 8.55796 20.7078 9.12139 20.3116 9.89836C20.111 10.3023 20.0003 10.7731 20.1393 11.2053C20.2782 11.6375 20.6512 11.9694 21.0783 12.1135C21.508 12.255 21.9839 12.2267 22.4136 12.0852C22.429 10.9352 22.8149 9.69512 23.7308 8.94387C24.4666 8.34442 25.5523 8.26981 26.4399 8.61199C26.759 8.73548 27.06 8.92586 27.2941 9.17799C27.752 9.67196 28.1585 10.2611 28.4956 11.5346C25.3517 13.0989 23.0619 14.6657 21.6237 16.2299C20.1881 17.7941 19.4678 19.4947 19.4678 21.324C19.4678 22.4071 19.6968 23.3384 20.1547 24.1231C20.6127 24.9078 21.2661 25.515 22.11 25.9472C22.9539 26.3794 23.9366 26.5981 25.0481 26.5981C26.3267 26.5981 27.4433 26.2611 28.3824 25.5844C29.3266 24.9104 30.1087 23.9122 30.739 22.5846C31.0066 23.9096 31.4414 24.8615 32.046 25.4172C32.6506 25.9729 33.5819 26.2482 34.8374 26.2482H36.4685V25.924C35.7199 25.7337 35.2079 24.7895 34.9172 23.13L33.3246 13.6289L33.3349 13.634ZM29.1259 23.7475C28.4724 24.1797 27.8086 24.3984 27.132 24.3984C26.0669 24.3984 25.2333 24.0125 24.6313 23.2432C23.5868 21.908 23.5585 19.9295 23.9058 18.3421C24.2531 16.7548 25.1073 15.2394 26.3164 14.1177C27.0471 13.4436 27.9064 12.9059 28.7168 12.3399C28.812 12.7258 30.6155 21.9414 30.6155 21.9414C30.2528 22.5923 29.7794 23.3101 29.1259 23.7424V23.7475Z" fill="black"/>
</g>
<defs>
<clipPath id="clip0_720_7941">
<rect width="92.9356" height="31.259" fill="white" transform="translate(0.09375 0.871094)"/>
</clipPath>
</defs>
</svg>
