<svg width="168" height="48" viewBox="0 0 168 48" fill="none" xmlns="http://www.w3.org/2000/svg">
<path d="M24 14V30.5H13L24 14Z" fill="#31625A"/>
<path d="M24 14L35 30.5H24V14Z" fill="#1EC3A5"/>
<path d="M24.1375 36L13 30.5L35 30.5L24.1375 36Z" fill="#FDEC92"/>
<path d="M49.449 26.7776C52.1022 26.7776 54.498 25.055 54.498 22.3028V21.9662C54.498 19.0556 52.3398 17.63 49.9242 17.63H44.4V30.5H46.8948V26.7776H49.449ZM49.7064 19.7882C51.3696 19.7882 51.9834 20.7584 51.9834 22.283C51.9834 23.6096 51.132 24.6194 49.449 24.6194H46.8948V19.7882H49.7064Z" fill="#404040"/>
<path d="M59.5204 28.8962C58.5502 28.8962 57.7978 28.4408 57.7978 27.4706C57.7978 26.4608 58.7878 26.045 59.7382 26.045C60.3718 26.045 61.0846 26.1638 61.5796 26.3222V27.0548C61.5796 28.2428 60.3916 28.8962 59.5204 28.8962ZM61.837 29.4308L62.134 30.5H63.9754V24.2828C63.9754 23.0156 63.6586 22.0256 63.1042 21.4712C62.3122 20.6198 61.144 20.303 59.7976 20.303C57.877 20.303 56.1148 21.2534 55.9564 23.273V23.5106H58.1146C58.174 22.4216 59.0254 22.1048 59.8372 22.1048C61.4212 22.1048 61.5796 22.9958 61.5796 24.164V24.5204C60.9658 24.3818 60.2728 24.3026 59.7184 24.3026C57.6394 24.3026 55.3822 25.0748 55.3822 27.53V27.6884C55.3822 29.5298 57.0058 30.8168 58.9066 30.8168C60.1144 30.8168 61.1638 30.3218 61.7974 29.4308H61.837Z" fill="#404040"/>
<path d="M70.239 27.8468C70.0212 27.2132 69.8232 26.5004 69.6054 25.9262L67.5462 20.6H64.992V20.897L68.8728 30.0248L67.1502 33.767V34.064H69.6648L75.288 20.897V20.6H72.8922L70.8924 25.9262C70.6746 26.54 70.4964 27.2132 70.2786 27.8468H70.239Z" fill="#404040"/>
<path d="M89.2319 17.63H86.5193L84.4205 24.9362C84.2027 25.6886 84.0839 26.936 83.9255 27.6488H83.8859C83.7275 26.936 83.5691 25.6886 83.3513 24.9362L81.1733 17.63H78.7577V17.9468L82.6187 30.5H85.1135L87.8063 20.6198H87.8459L90.5585 30.5H93.0929L96.7163 17.9468V17.63H94.4393L92.4395 24.9362C92.2217 25.6886 92.1029 26.936 91.9445 27.6488H91.9049C91.7465 26.936 91.5881 25.6688 91.3703 24.9362L89.2319 17.63Z" fill="#404040"/>
<path d="M100.575 24.56C100.575 23.0552 101.387 22.3424 102.674 22.3424C103.862 22.3424 104.654 23.0156 104.654 24.5402V30.5H107.03V23.8274C107.03 21.788 105.545 20.303 103.407 20.303C102.298 20.303 101.347 20.6594 100.615 21.59H100.575V16.64H98.1795V30.5H100.575V24.56Z" fill="#404040"/>
<path d="M109.052 25.748C109.052 28.9952 111.467 30.8168 114.101 30.8168C116.734 30.8168 119.209 28.9952 119.209 25.748V25.3916C119.209 22.1246 116.734 20.303 114.101 20.303C111.467 20.303 109.052 22.1246 109.052 25.3916V25.748ZM114.121 22.283C115.903 22.283 116.794 23.7086 116.794 25.55C116.794 27.3914 115.903 28.817 114.121 28.817C112.339 28.817 111.467 27.3914 111.467 25.55C111.467 23.7086 112.339 22.283 114.121 22.283Z" fill="#404040"/>
<path d="M123.734 16.64H121.319V27.2924C121.319 29.5892 122.427 30.599 124.407 30.599C124.942 30.599 125.219 30.5594 125.675 30.4604V28.5398H125.437C124.467 28.6784 123.734 28.322 123.734 27.134V16.64Z" fill="#404040"/>
<path d="M131.555 20.303C128.822 20.303 126.624 22.4018 126.624 25.4114V25.7282C126.624 28.7378 128.822 30.8168 131.574 30.8168C133.891 30.8168 135.633 29.7476 136.168 27.629H133.832C133.436 28.5002 132.762 28.8566 131.654 28.8566C130.129 28.8566 129.297 27.8072 129.08 26.3024H136.247C136.267 26.2034 136.267 26.0846 136.267 25.9658C136.267 25.7876 136.287 25.5302 136.287 25.2926C136.287 22.283 134.287 20.303 131.555 20.303ZM129.139 24.4214C129.436 23.1344 130.149 22.2632 131.634 22.2632C133.059 22.2632 133.752 23.2136 133.832 24.4214H129.139Z" fill="#404040"/>
<path d="M138.071 23.4314C138.071 24.164 138.408 24.8768 138.824 25.2926C139.794 26.2628 141.516 26.3222 142.467 26.5796C143.318 26.8172 143.595 27.2528 143.595 27.7874C143.595 28.4804 143.041 28.9754 142.011 28.9754C140.804 28.9754 140.229 28.5002 140.229 27.332H137.972V27.53C138.071 29.807 139.754 30.797 141.972 30.797C143.793 30.797 145.932 29.9456 145.932 27.5696V27.4706C145.932 26.6984 145.615 25.946 145.14 25.4708C144.189 24.5204 142.506 24.3818 141.358 24.1244C140.784 23.9858 140.427 23.6096 140.427 23.1146C140.427 22.4216 140.903 22.085 141.853 22.085C142.823 22.085 143.417 22.4018 143.477 23.3324H145.655V23.1344C145.556 21.1346 143.892 20.303 141.853 20.303C140.051 20.303 138.071 21.1544 138.071 23.3126V23.4314Z" fill="#404040"/>
<path d="M151.679 28.8962C150.709 28.8962 149.956 28.4408 149.956 27.4706C149.956 26.4608 150.946 26.045 151.897 26.045C152.53 26.045 153.243 26.1638 153.738 26.3222V27.0548C153.738 28.2428 152.55 28.8962 151.679 28.8962ZM153.996 29.4308L154.293 30.5H156.134V24.2828C156.134 23.0156 155.817 22.0256 155.263 21.4712C154.471 20.6198 153.303 20.303 151.956 20.303C150.036 20.303 148.273 21.2534 148.115 23.273V23.5106H150.273C150.333 22.4216 151.184 22.1048 151.996 22.1048C153.58 22.1048 153.738 22.9958 153.738 24.164V24.5204C153.124 24.3818 152.431 24.3026 151.877 24.3026C149.798 24.3026 147.541 25.0748 147.541 27.53V27.6884C147.541 29.5298 149.164 30.8168 151.065 30.8168C152.273 30.8168 153.322 30.3218 153.956 29.4308H153.996Z" fill="#404040"/>
<path d="M161.383 17.729C161.383 16.838 160.651 16.343 159.779 16.343C158.888 16.343 158.176 16.838 158.176 17.729V17.828C158.176 18.6992 158.888 19.1942 159.779 19.1942C160.651 19.1942 161.383 18.6992 161.383 17.828V17.729ZM160.987 30.5V20.6H158.572V30.5H160.987Z" fill="#404040"/>
<path d="M165.935 16.64H163.52V27.2924C163.52 29.5892 164.628 30.599 166.608 30.599C167.143 30.599 167.42 30.5594 167.876 30.4604V28.5398H167.638C166.668 28.6784 165.935 28.322 165.935 27.134V16.64Z" fill="#404040"/>
</svg>
