<svg width="97" height="28" viewBox="0 0 97 28" fill="none" xmlns="http://www.w3.org/2000/svg" class="sm:hidden md:block"><path d="M7.55103 21.8H0.8C0.358172 21.8 0 21.4418 0 21V19.8C0 19.3582 0.358172 19 0.8 19H5.53281C6.78924 19 7.99098 18.4861 8.8589 17.5776L16.5457 9.53162C17.6023 8.42565 19.0653 7.8 20.5948 7.8H29.2C29.6418 7.8 30 8.15817 30 8.6V12.8C30 13.2418 29.6418 13.6 29.2 13.6H21.8124C20.7002 13.6 19.6173 13.9566 18.7227 14.6175L10.1655 20.939C9.40848 21.4982 8.49215 21.8 7.55103 21.8Z" fill="#1F2741"></path><path d="M0 14.8V2.4C0 1.07452 1.07452 0 2.4 0H28.8C29.4627 0 30 0.537258 30 1.2V3C30 3.44183 29.6418 3.8 29.2 3.8H19.2293C17.3118 3.8 15.4952 4.65983 14.2796 6.14286L6.80012 15.2679C6.42024 15.7313 5.85258 16 5.25333 16H1.2C0.537258 16 0 15.4627 0 14.8Z" fill="#1F2741"></path><path d="M30 18.8V25.6C30 26.9255 28.9255 28 27.6 28L1.2 28C0.537259 28 -5.79387e-08 27.4627 0 26.8L1.04907e-07 25.6C1.43533e-07 25.1582 0.358173 24.8 0.8 24.8L8.92686 24.8C9.75856 24.8 10.5732 24.5643 11.2764 24.1202L20.0343 18.5889C21.0571 17.9429 22.2421 17.6 23.4518 17.6H28.8C29.4627 17.6 30 18.1373 30 18.8Z" fill="#1F2741"></path><path d="M38.5685 21.6468C38.3272 21.6468 38.1847 21.3766 38.3208 21.1775L43.409 13.7378L38.3692 6.47097C38.2312 6.27202 38.3736 6 38.6157 6H41.3866C41.6549 6 41.9053 6.13449 42.0535 6.35815L45.3119 11.2763L48.6216 6.35594C48.7711 6.13362 49.022 6.00093 49.29 6.00247L52.0107 6.01812C52.2523 6.01951 52.3933 6.29129 52.2552 6.48954L47.1933 13.7592L52.3201 21.1762C52.4576 21.3752 52.3152 21.6468 52.0733 21.6468H49.2315C48.9605 21.6468 48.7078 21.5096 48.5603 21.2822L45.3119 16.2742L42.0317 21.285C41.8839 21.5108 41.6322 21.6468 41.3624 21.6468H38.5685Z" fill="#1F2741"></path><path d="M54.5268 9.95987C54.5268 9.31773 54.5838 8.76834 54.6978 8.31171C54.8119 7.84794 55.0007 7.43768 55.2644 7.08094C55.5352 6.71706 55.9129 6.44593 56.3976 6.26756C56.8822 6.08919 57.4773 6 58.1828 6H59.1405C59.3614 6 59.5405 6.17909 59.5405 6.4V7.901C59.5405 8.12192 59.3614 8.301 59.1405 8.301H59.038C58.4679 8.301 58.083 8.4223 57.8835 8.66488C57.6911 8.90033 57.5949 9.37124 57.5949 10.0776V10.313H59.1405C59.3614 10.313 59.5405 10.4921 59.5405 10.713V12.2355C59.5405 12.4564 59.3614 12.6355 59.1405 12.6355H57.5949V21.0468C57.5949 21.3782 57.3262 21.6468 56.9949 21.6468H55.1268C54.7954 21.6468 54.5268 21.3782 54.5268 21.0468V12.6355H53.334C53.113 12.6355 52.934 12.4564 52.934 12.2355V10.713C52.934 10.4921 53.113 10.313 53.334 10.313H54.5268V9.95987ZM61.9865 21.6468C61.6551 21.6468 61.3865 21.3782 61.3865 21.0468V6.6C61.3865 6.26863 61.6551 6 61.9865 6H63.8973C64.2287 6 64.4973 6.26863 64.4973 6.6V21.0468C64.4973 21.3782 64.2287 21.6468 63.8973 21.6468H61.9865Z" fill="#1F2741"></path><path d="M72.408 22C71.5885 22 70.8152 21.8609 70.0883 21.5826C69.3614 21.3043 68.7235 20.9119 68.1747 20.4054C67.626 19.8988 67.1913 19.2638 66.8706 18.5003C66.5499 17.7369 66.3895 16.895 66.3895 15.9746C66.3895 14.7617 66.6639 13.695 67.2126 12.7746C67.7685 11.8542 68.499 11.1585 69.4041 10.6876C70.3092 10.2167 71.3105 9.98127 72.408 9.98127C73.2205 9.98127 73.9902 10.1204 74.7171 10.3987C75.444 10.6769 76.0819 11.0693 76.6306 11.5759C77.1794 12.0754 77.6141 12.7068 77.9348 13.4702C78.2556 14.2265 78.4159 15.0613 78.4159 15.9746C78.4159 17.1946 78.138 18.2685 77.5821 19.196C77.0262 20.1235 76.2957 20.8227 75.3906 21.2936C74.4926 21.7645 73.4984 22 72.408 22ZM69.3934 15.9746C69.3934 16.9877 69.6714 17.8404 70.2273 18.5324C70.7831 19.2174 71.5101 19.5599 72.408 19.5599C73.306 19.5599 74.0294 19.2174 74.5781 18.5324C75.134 17.8404 75.412 16.9877 75.412 15.9746C75.412 14.9686 75.134 14.1231 74.5781 13.4381C74.0294 12.746 73.306 12.4 72.408 12.4C71.5101 12.4 70.7831 12.746 70.2273 13.4381C69.6714 14.1302 69.3934 14.9757 69.3934 15.9746Z" fill="#1F2741"></path><path d="M82.8987 21.6468C82.5421 21.6468 82.2285 21.4107 82.1299 21.068L79.1828 10.8236C79.1093 10.5679 79.3012 10.313 79.5672 10.313H81.7212C81.9964 10.313 82.2365 10.5003 82.3027 10.7675C82.9755 13.4816 83.5871 16.1852 84.1351 18.9284H84.1565C84.8119 16.2217 85.3684 13.4878 86.0039 10.7744C86.0673 10.5038 86.3089 10.313 86.5868 10.313H89.0517C89.3283 10.313 89.5692 10.5021 89.6337 10.7711C90.2879 13.4987 90.852 16.2439 91.5006 18.9712H91.522C92.164 16.2519 92.7018 13.5054 93.3186 10.7788C93.3803 10.5061 93.623 10.313 93.9025 10.313H96.0676C96.3339 10.313 96.5259 10.5685 96.4518 10.8243L93.4852 21.0693C93.3861 21.4114 93.0729 21.6468 92.7167 21.6468H90.3047C89.9391 21.6468 89.6203 21.399 89.527 21.0455C88.8948 18.6511 88.1561 16.2339 87.8446 13.7806H87.7484C87.2613 16.2189 86.6779 18.6271 86.0815 21.0392C85.9932 21.3962 85.6728 21.6468 85.3051 21.6468H82.8987Z" fill="#1F2741"></path></svg>